<?xml version="1.0" encoding="UTF-8"?>
<svg version="1.1" xmlns="http://www.w3.org/2000/svg" width="2048" height="2048">
<path d="M0 0 C675.84 0 1351.68 0 2048 0 C2048 675.84 2048 1351.68 2048 2048 C1372.16 2048 696.32 2048 0 2048 C0 1372.16 0 696.32 0 0 Z " fill="#EF8705" transform="translate(0,0)"/>
<path d="M0 0 C5.07180756 4.24829242 9.83741455 8.68357382 14.5 13.375 C15.43779297 14.30699219 15.43779297 14.30699219 16.39453125 15.2578125 C19.43422778 18.30380239 22.36600505 21.38758644 25.15625 24.6640625 C30.42736426 30.76675581 36.26820033 36.33544491 42 42 C54.78400456 54.63402461 54.78400456 54.63402461 58.46875 58.96875 C63.75065327 65.17433586 69.70979426 70.77500977 75.5 76.5 C88.87405273 89.72341979 88.87405273 89.72341979 94.13476562 95.91210938 C98.67810969 100.99780027 103.64942508 105.70880257 108.5 110.5 C120.7512222 122.60125096 120.7512222 122.60125096 126.09960938 128.87695312 C130.6594442 133.97103375 135.63715271 138.69668043 140.5 143.5 C152.7519613 155.60198101 152.7519613 155.60198101 156.46875 159.96875 C161.60334149 165.99358813 167.37402 171.44002312 173 177 C185.78400456 189.63402461 185.78400456 189.63402461 189.46875 193.96875 C194.75065327 200.17433586 200.70979426 205.77500977 206.5 211.5 C219.90342716 224.75246337 219.90342716 224.75246337 225.16601562 230.94335938 C229.53860144 235.84680225 234.32578834 240.38560458 239 245 C250.72065519 256.57066508 250.72065519 256.57066508 254.4375 260.9375 C259.58560016 266.97062464 265.36324629 272.4293758 271 278 C283.78326304 290.63329179 283.78326304 290.63329179 289.0859375 296.86328125 C293.81006553 302.13695071 298.96579848 307.02485895 304 312 C316.78326304 324.63329179 316.78326304 324.63329179 322.0859375 330.86328125 C326.81006553 336.13695071 331.96579848 341.02485895 337 346 C349.81254839 358.66223358 349.81254839 358.66223358 355.1171875 364.89453125 C359.66880003 369.98440502 364.64328498 374.70273763 369.5 379.5 C381.7519613 391.60198101 381.7519613 391.60198101 385.46875 395.96875 C390.60334149 401.99358813 396.37402 407.44002312 402 413 C414.78400456 425.63402461 414.78400456 425.63402461 418.46875 429.96875 C423.75065327 436.17433586 429.70979426 441.77500977 435.5 447.5 C448.87405273 460.72341979 448.87405273 460.72341979 454.13476562 466.91210938 C458.67810969 471.99780027 463.64942508 476.70880257 468.5 481.5 C480.7512222 493.60125096 480.7512222 493.60125096 486.09960938 499.87695312 C490.6594442 504.97103375 495.63715271 509.69668043 500.5 514.5 C512.7519613 526.60198101 512.7519613 526.60198101 516.46875 530.96875 C521.60334149 536.99358813 527.37402 542.44002312 533 548 C545.78326304 560.63329179 545.78326304 560.63329179 551.0859375 566.86328125 C555.81006553 572.13695071 560.96579848 577.02485895 566 582 C578.81254839 594.66223358 578.81254839 594.66223358 584.1171875 600.89453125 C588.66880003 605.98440502 593.64328498 610.70273763 598.5 615.5 C610.7519613 627.60198101 610.7519613 627.60198101 614.46875 631.96875 C619.60334149 637.99358813 625.37402 643.44002312 631 649 C643.78400456 661.63402461 643.78400456 661.63402461 647.46875 665.96875 C652.75065327 672.17433586 658.70979426 677.77500977 664.5 683.5 C677.87405273 696.72341979 677.87405273 696.72341979 683.13476562 702.91210938 C687.67810969 707.99780027 692.64942508 712.70880257 697.5 717.5 C699.70097054 719.67402773 701.89835788 721.85159066 704.09375 724.03125 C704.5825061 724.51170776 705.07126221 724.99216553 705.5748291 725.48718262 C708.26111127 728.15487773 710.74941107 730.89352241 713.16620541 733.8087101 C715.62229851 736.65054344 718.01297288 738.84472513 721.11706638 740.9519558 C727.29234596 745.40650299 732.00290843 750.05552326 733.91512942 757.62023592 C735.53068322 767.94862316 735.09311042 778.57359677 734.92692836 788.98958056 C734.86755538 793.83193327 734.90185165 798.6737951 734.92416286 803.51633549 C734.95045204 811.96919284 734.91805227 820.42020622 734.84643173 828.87277794 C734.74102942 841.35426458 734.72803962 853.83463339 734.7350314 866.3165023 C734.74435226 887.14438486 734.68171079 907.97144334 734.5774231 928.79904175 C734.43611673 957.14314152 734.38486865 985.48685874 734.36020124 1013.83127582 C734.34885046 1026.87227663 734.3339008 1039.91327324 734.31816101 1052.95426941 C734.31662486 1054.24913626 734.31508871 1055.54400312 734.31350601 1056.87810836 C734.28957516 1076.62848889 734.24773315 1096.37878146 734.19490051 1116.12910461 C734.18791491 1118.76079699 734.18093565 1121.39248938 734.17396277 1124.02418178 C734.17051878 1125.32385914 734.16707478 1126.6235365 734.16352642 1127.96259801 C734.00450145 1188.08499855 734.01049024 1248.20463245 734.21619102 1308.32688653 C734.22656055 1311.36271116 734.23679073 1314.39853623 734.24698472 1317.43436146 C734.31922662 1338.90220441 734.39746023 1360.37002212 734.47952271 1381.83782959 C734.55771941 1402.29709617 734.62745641 1422.75638172 734.69137959 1443.21569768 C734.69855236 1445.49520297 734.70587277 1447.77470772 734.71325982 1450.05421233 C734.74457567 1459.74725424 734.77244585 1469.44030289 734.79843485 1479.13336051 C734.80967117 1483.32291714 734.82127898 1487.51247253 734.83320099 1491.70202727 C734.98625398 1545.56245894 735.02430427 1599.42250046 735.01322375 1653.28313193 C735.0111067 1663.76666725 735.01014636 1674.25020261 735.0092391 1684.73373809 C735.00736153 1706.15582563 735.00417101 1727.57791279 735 1749 C693.78434339 1749.03298827 652.56868579 1749.06461999 611.35302734 1749.09521484 C610.54653543 1749.09581363 609.74004352 1749.09641242 608.90911246 1749.09702935 C522.50993983 1749.16114018 436.11076687 1749.21648222 349.71157837 1749.25405884 C347.79289366 1749.25489554 345.87420895 1749.25573225 343.95552423 1749.25656897 C303.68375401 1749.27410426 263.41198335 1749.29040464 223.14021205 1749.30527807 C202.91102199 1749.31275056 182.68183202 1749.32046041 162.45264214 1749.32839465 C159.40110376 1749.32959014 156.34956538 1749.33077885 153.298027 1749.33196728 C106.29653741 1749.35033189 59.29505714 1749.37379362 12.2935791 1749.4119873 C10.77717883 1749.41321939 10.77717883 1749.41321939 9.23014421 1749.41447637 C-7.06958306 1749.42775096 -23.36930998 1749.44145248 -39.66903684 1749.45521064 C-86.60485766 1749.49482141 -133.54067133 1749.53128661 -180.47650719 1749.54683876 C-181.44126454 1749.54715997 -182.40602189 1749.54748118 -183.40001431 1749.54781213 C-204.57640627 1749.55480595 -225.75279831 1749.56017543 -246.92919106 1749.5640059 C-255.44925785 1749.56557568 -263.9693246 1749.56737939 -272.48939133 1749.56926346 C-273.8881364 1749.5695643 -273.8881364 1749.5695643 -275.31513895 1749.56987122 C-305.38345675 1749.57645483 -335.45172141 1749.60209794 -365.52001776 1749.63769325 C-395.79747619 1749.67344922 -426.074883 1749.69060448 -456.35236309 1749.68174393 C-460.53231139 1749.68052537 -464.71225971 1749.67952111 -468.8922081 1749.67864609 C-469.71162795 1749.6784668 -470.5310478 1749.67828752 -471.37529856 1749.67810281 C-484.37287778 1749.67581506 -497.3703481 1749.69375917 -510.36789762 1749.72005917 C-523.13522892 1749.74548041 -535.90241846 1749.74967626 -548.66976307 1749.73099088 C-555.50516528 1749.72157823 -562.34023444 1749.72171409 -569.17559691 1749.74929909 C-575.38503587 1749.7734466 -581.59382144 1749.77034984 -587.8032495 1749.74483985 C-590.04424345 1749.74052867 -592.28528434 1749.74643617 -594.52621814 1749.76341147 C-597.55541907 1749.78491625 -600.58226841 1749.76980421 -603.61139357 1749.74519098 C-604.48501373 1749.76024424 -605.35863389 1749.77529751 -606.25872739 1749.79080693 C-610.75473018 1749.7122079 -613.27648982 1749.25164464 -616.5867879 1746.07842556 C-619 1743 -619 1743 -619 1741 C-619.66 1741 -620.32 1741 -621 1741 C-622.27955627 1739.69796753 -622.27955627 1739.69796753 -623.83032227 1737.79638672 C-628.56037039 1732.23936985 -633.74475895 1727.15905258 -638.92588615 1722.02951431 C-640.7481185 1720.22485871 -642.56662423 1718.41652157 -644.38417053 1716.60714722 C-649.54618121 1711.46944743 -654.7140151 1706.33763297 -659.88598633 1701.20996094 C-663.0623803 1698.06026651 -666.23395284 1694.90578435 -669.40255928 1691.74825668 C-670.6092026 1690.54783225 -671.81774137 1689.34931004 -673.02818108 1688.15271378 C-674.7107323 1686.48926608 -676.38713705 1684.81985286 -678.06225586 1683.14892578 C-678.56554916 1682.65439407 -679.06884247 1682.15986237 -679.58738708 1681.65034485 C-683 1678.22789983 -683 1678.22789983 -683 1676 C-683.66 1676 -684.32 1676 -685 1676 C-686.28051758 1674.69824219 -686.28051758 1674.69824219 -687.83203125 1672.796875 C-692.5576199 1667.24537266 -697.7281147 1662.15975833 -702.89712524 1657.02770996 C-704.72512179 1655.21264434 -706.54982956 1653.39432699 -708.3737793 1651.57519531 C-712.24636422 1647.71395815 -716.12287734 1643.85668004 -720 1640 C-724.49794604 1635.52576995 -728.99420347 1631.04986931 -733.48623657 1626.56970215 C-735.27155545 1624.79079745 -737.05989139 1623.01496604 -738.84838867 1621.23925781 C-747.83870486 1612.28905286 -747.83870486 1612.28905286 -751.48632812 1608.01367188 C-756.04817539 1602.66977383 -761.1001642 1597.7897007 -766.08232117 1592.84251404 C-767.94392032 1590.99384125 -769.80223504 1589.14192039 -771.65979004 1587.28918457 C-775.60370565 1583.3566189 -779.55154876 1579.42801101 -783.5 1575.5 C-788.08055029 1570.94316217 -792.65941449 1566.38465593 -797.23405457 1561.82188416 C-799.05261291 1560.00974195 -800.87418796 1558.20067157 -802.69592285 1556.39172363 C-811.85179486 1547.27596284 -811.85179486 1547.27596284 -815.48632812 1543.01367188 C-820.10293948 1537.60278207 -825.22431877 1532.66575744 -830.26751709 1527.65731812 C-832.16271893 1525.77503824 -834.05464053 1523.88951382 -835.94580078 1522.00317383 C-839.96104704 1517.99927961 -843.98022013 1513.99934194 -848 1510 C-852.66315461 1505.36055446 -857.32462555 1500.71944259 -861.98187256 1496.07406616 C-863.83367034 1494.22868641 -865.68848449 1492.38637706 -867.54345703 1490.54418945 C-872.57045515 1485.53882178 -877.50114184 1480.51918328 -882.10668945 1475.11816406 C-886.2299597 1470.50520563 -890.69313053 1466.20089646 -895.08232117 1461.84251404 C-896.94392032 1459.99384125 -898.80223504 1458.14192039 -900.65979004 1456.28918457 C-904.60370565 1452.3566189 -908.55154876 1448.42801101 -912.5 1444.5 C-917.08055029 1439.94316217 -921.65941449 1435.38465593 -926.23405457 1430.82188416 C-928.05261291 1429.00974195 -929.87418796 1427.20067157 -931.69592285 1425.39172363 C-940.85182121 1416.27593556 -940.85182121 1416.27593556 -944.49780273 1412.00219727 C-949.06390489 1406.65037172 -954.1245524 1401.76536565 -959.11288643 1396.81194878 C-960.97840889 1394.9593474 -962.8406515 1393.10350241 -964.70213318 1391.24684143 C-968.65276763 1387.30755673 -972.60733388 1383.37223406 -976.5625 1379.4375 C-981.15383416 1374.86986125 -985.74349013 1370.30056173 -990.32893181 1365.72700691 C-992.1536358 1363.90873114 -993.98135044 1362.0935204 -995.80921936 1360.27842712 C-1004.98518028 1351.14116795 -1004.98518028 1351.14116795 -1008.61303711 1346.82055664 C-1010.87578871 1343.88289325 -1010.87578871 1343.88289325 -1014 1342 C-1014 1341.34 -1014 1340.68 -1014 1340 C-1010.80481245 1341.52074749 -1007.77543845 1343.28803722 -1004.72143555 1345.07177734 C-984.61495887 1356.71910137 -965.7238384 1361.15477103 -942.57408142 1361.14044189 C-940.89892257 1361.14302852 -939.22376433 1361.14604251 -937.54860693 1361.1494453 C-932.95938725 1361.15748355 -928.37018323 1361.15930309 -923.78095734 1361.16004276 C-918.82574874 1361.16189885 -913.87054817 1361.16944895 -908.91534424 1361.17617798 C-898.08663695 1361.18973902 -887.25793337 1361.19578248 -876.42921901 1361.20018864 C-869.66316001 1361.2029547 -862.89710243 1361.20719271 -856.13104439 1361.21169281 C-837.38442417 1361.22388232 -818.63780509 1361.23418242 -799.89118099 1361.2375679 C-798.69220429 1361.23778747 -797.4932276 1361.23800703 -796.25791827 1361.23823325 C-794.4552429 1361.23856067 -794.4552429 1361.23856067 -792.61614984 1361.2388947 C-790.18103023 1361.23933816 -787.74591062 1361.23978472 -785.31079102 1361.24023438 C-783.49895042 1361.24056652 -783.49895042 1361.24056652 -781.65050698 1361.24090537 C-762.08446213 1361.24485223 -742.51845456 1361.26230425 -722.9524241 1361.2855939 C-702.8468798 1361.30933187 -682.74135419 1361.32177086 -662.63579565 1361.32293582 C-651.35428782 1361.32385118 -640.07282857 1361.32956845 -628.79133415 1361.34775543 C-619.183971 1361.3631894 -609.57667144 1361.36825744 -599.96929824 1361.36001733 C-595.07213621 1361.35612257 -590.17510212 1361.35698285 -585.27795601 1361.37107468 C-580.78519343 1361.38388406 -576.292654 1361.38255489 -571.79989142 1361.37048396 C-570.18413733 1361.36853909 -568.56836704 1361.3715487 -566.95263564 1361.38032833 C-535.48491014 1361.54034151 -507.97573993 1350.37452882 -485.25 1328.6875 C-479.71599453 1322.96072801 -475.16605044 1316.77367518 -471 1310 C-470.64808594 1309.4332959 -470.29617188 1308.8665918 -469.93359375 1308.28271484 C-459.57245217 1291.2546948 -454.67742918 1271.52034175 -454.73930359 1251.70526123 C-454.73547804 1250.3957746 -454.73165249 1249.08628796 -454.72771102 1247.73711991 C-454.71747894 1244.12680625 -454.71960055 1240.51659242 -454.72389162 1236.90627074 C-454.72636763 1233.00292769 -454.71733377 1229.09960814 -454.70985413 1225.1962738 C-454.69712878 1217.55813408 -454.69531078 1209.92002955 -454.69765439 1202.281881 C-454.69944035 1196.06989759 -454.69768195 1189.85792483 -454.69342995 1183.64594269 C-454.69283476 1182.76044875 -454.69223957 1181.87495481 -454.69162634 1180.96262772 C-454.69041454 1179.1634863 -454.6892004 1177.36434488 -454.68798397 1175.56520346 C-454.67711649 1158.70608418 -454.679267 1141.84698492 -454.68536881 1124.98786452 C-454.69053568 1109.58496711 -454.6792872 1094.18213299 -454.66027059 1078.77924809 C-454.64086953 1062.94286414 -454.63264027 1047.10651009 -454.63639385 1031.27011418 C-454.63830265 1022.3875414 -454.63584976 1013.50502246 -454.62167931 1004.62245941 C-454.6097355 997.05940582 -454.60839404 989.49643919 -454.62046947 981.93338433 C-454.62633754 978.0794668 -454.62751549 974.2257081 -454.61546707 970.37180138 C-454.60252144 966.1819676 -454.61312199 961.99250802 -454.6257782 957.80267334 C-454.61840391 956.60127991 -454.61102963 955.39988649 -454.60343188 954.1620872 C-454.79930534 923.18027198 -469.71748138 896.31910783 -491.05859375 874.9375 C-515.65987732 852.08211398 -546.31834979 847.81907481 -578.375 847.375 C-580.67188851 847.33674014 -582.9687639 847.29768402 -585.265625 847.2578125 C-590.84363198 847.16269517 -596.42172056 847.07740515 -602 847 C-600.73185432 843.64957678 -599.29353248 840.61442359 -597.453125 837.54296875 C-596.94555664 836.69081787 -596.43798828 835.83866699 -595.91503906 834.96069336 C-595.36557617 834.04553955 -594.81611328 833.13038574 -594.25 832.1875 C-593.06186644 830.19308563 -591.87438815 828.19828078 -590.6875 826.203125 C-590.07519531 825.17509766 -589.46289062 824.14707031 -588.83203125 823.08789062 C-585.94409927 818.22027819 -583.0964653 813.32943994 -580.25 808.4375 C-575.07610385 799.55449679 -569.88784673 790.6800347 -564.6875 781.8125 C-564.33192017 781.20614716 -563.97634033 780.59979431 -563.60998535 779.97506714 C-561.79792297 776.88514393 -559.98567663 773.79532867 -558.17333984 770.70556641 C-556.02775582 767.04753137 -553.88289501 763.3890727 -551.73828125 759.73046875 C-551.21325012 758.83479187 -551.21325012 758.83479187 -550.6776123 757.92102051 C-549.61839564 756.11402103 -548.55919467 754.30701236 -547.5 752.5 C-543.57918401 745.81099073 -539.65832629 739.1220066 -535.73550415 732.43417358 C-528.8115604 720.62982662 -521.89125131 708.82347775 -515 697 C-509.90806291 688.26364688 -504.80243501 679.53540101 -499.6875 670.8125 C-499.33255463 670.20717438 -498.97760925 669.60184875 -498.61190796 668.97817993 C-495.71052227 664.0303904 -492.80845842 659.08299871 -489.90637207 654.13562012 C-487.37476856 649.81976349 -484.84342603 645.50375396 -482.3125 641.1875 C-481.95731293 640.58177155 -481.60212585 639.97604309 -481.23617554 639.35195923 C-476.48038784 631.24069082 -471.73477266 623.12355793 -467 615 C-459.74674861 602.55543043 -452.46102122 590.12998798 -445.17333984 577.70556641 C-443.02775582 574.04753137 -440.88289501 570.3890727 -438.73828125 566.73046875 C-438.21325012 565.83479187 -438.21325012 565.83479187 -437.6776123 564.92102051 C-436.61839564 563.11402103 -435.55919467 561.30701236 -434.5 559.5 C-430.57918401 552.81099073 -426.65832629 546.1220066 -422.73550415 539.43417358 C-415.25425197 526.6796944 -407.78042342 513.92105252 -400.33642578 501.14477539 C-397.0281873 495.469213 -393.71134262 489.7987866 -390.38671875 484.1328125 C-389.99565948 483.46626648 -389.60460022 482.79972046 -389.20169067 482.11297607 C-387.27537341 478.82997319 -385.34821489 475.54746779 -383.41992188 472.265625 C-382.72133601 471.07553149 -382.02276743 469.88542784 -381.32421875 468.6953125 C-380.70635498 467.64359863 -380.08849121 466.59188477 -379.4519043 465.50830078 C-378.59493078 464.02779869 -377.76502158 462.53004315 -377 461 C-354.21780516 460.32070687 -331.43729161 459.81030779 -308.64700413 459.49744701 C-298.06289091 459.34826872 -287.48508827 459.14520391 -276.9050293 458.81225586 C-267.67608879 458.52196671 -258.45171614 458.33584877 -249.21833748 458.27143365 C-244.33216238 458.23379235 -239.45904364 458.14639108 -234.57708931 457.93382835 C-205.60913443 456.72041936 -205.60913443 456.72041936 -198.28612566 462.30762839 C-191.47132787 468.99309772 -187.73662066 477.88576635 -184.34162712 486.64656448 C-182.65696877 490.85741642 -180.50813553 494.59022763 -178.078125 498.40234375 C-177.43294922 499.50384766 -176.78777344 500.60535156 -176.12304688 501.74023438 C-170.08459087 512.04779691 -164.03080869 522.34594342 -157.94555664 532.62597656 C-153.50436277 540.13372537 -149.0945538 547.65969009 -144.6875 555.1875 C-139.15257723 564.64154522 -133.59235241 574.07977163 -128 583.5 C-122.04139753 593.53717075 -116.12236311 603.59664043 -110.22509766 613.66992188 C-105.66650979 621.45639369 -101.09622396 629.23565937 -96.5 637 C-91.53830374 645.38172817 -86.60848093 653.78183702 -81.6875 662.1875 C-76.15257723 671.64154522 -70.59235241 681.07977163 -65 690.5 C-59.04139753 700.53717075 -53.12236311 710.59664043 -47.22509766 720.66992188 C-42.15349403 729.33267005 -37.06245517 737.98355849 -31.94799805 746.62109375 C-28.93413272 751.71510799 -25.93315965 756.81646489 -22.9453125 761.92578125 C-22.59393219 762.52656998 -22.24255188 763.1273587 -21.88052368 763.74635315 C-21.52533661 764.35365768 -21.17014954 764.96096222 -20.80419922 765.58666992 C-20.07781758 766.82862387 -19.35141775 768.07056718 -18.625 769.3125 C-18.26472717 769.92848053 -17.90445435 770.54446106 -17.53326416 771.17910767 C-12.53738648 779.71674718 -7.48412217 788.21695379 -2.375 796.6875 C3.50614149 806.43948479 9.24117044 816.26867666 14.90283203 826.14916992 C15.77270752 827.66667847 15.77270752 827.66667847 16.66015625 829.21484375 C17.21461426 830.18276855 17.76907227 831.15069336 18.34033203 832.14794922 C20.47563006 835.81734485 22.69204251 839.43456756 24.93139648 843.04125977 C26 845 26 845 26 847 C25.40912598 847.00586624 24.81825195 847.01173248 24.20947266 847.01777649 C17.9782225 847.08243632 11.74745479 847.16702762 5.51660156 847.26245117 C3.20091166 847.29540844 0.88514706 847.32352794 -1.43066406 847.34643555 C-36.46403543 847.70221957 -67.29154289 856.00373691 -92.59326172 881.51123047 C-112.58210096 902.6656806 -122.16124786 930.08375616 -122.14044189 958.89564514 C-122.14341302 960.18638315 -122.14638414 961.47712116 -122.1494453 962.80697244 C-122.15747358 966.37424137 -122.15930253 969.94149012 -122.16004276 973.50876701 C-122.16190063 977.36239714 -122.16945163 981.21601698 -122.17617798 985.06964111 C-122.18973225 993.48932607 -122.19578151 1001.90900625 -122.20018864 1010.3287003 C-122.20295604 1015.59134665 -122.2071943 1020.85399117 -122.21169281 1026.11663628 C-122.22388179 1040.70271343 -122.23418176 1055.28878912 -122.2375679 1069.87487125 C-122.23789725 1071.27388881 -122.23789725 1071.27388881 -122.23823325 1072.70116934 C-122.23845153 1073.63601116 -122.23866981 1074.57085298 -122.2388947 1075.53402334 C-122.23933816 1077.42819981 -122.23978472 1079.32237627 -122.24023438 1081.21655273 C-122.24056652 1082.62590206 -122.24056652 1082.62590206 -122.24090537 1084.06372308 C-122.24485106 1099.2785397 -122.26229974 1114.49330836 -122.2855939 1129.70810647 C-122.30934597 1145.3489357 -122.32177151 1160.98974092 -122.32293582 1176.63058847 C-122.32385043 1185.40424014 -122.32954852 1194.17782931 -122.34775543 1202.9514637 C-122.36320856 1210.424135 -122.36824629 1217.89672448 -122.36001733 1225.36940873 C-122.35612917 1229.17686029 -122.35694986 1232.98414733 -122.37107468 1236.79157829 C-122.38629697 1240.93299215 -122.377893 1245.07404056 -122.36749268 1249.21546936 C-122.37554908 1250.39975039 -122.38360548 1251.58403142 -122.39190602 1252.80419976 C-122.32329643 1264.5604411 -120.0888521 1275.94607173 -116.25 1287.0625 C-115.86485229 1288.18809326 -115.86485229 1288.18809326 -115.47192383 1289.33642578 C-105.8884571 1316.49294413 -86.06864279 1338.42132504 -60.109375 1350.9140625 C-43.13419229 1358.76333427 -27.2218836 1361.15051008 -8.60772705 1361.14717102 C-6.93613149 1361.15047441 -5.26453672 1361.15420097 -3.59294295 1361.1583125 C0.98662177 1361.16828668 5.56617339 1361.17204188 10.14574742 1361.17470181 C15.09082798 1361.17861853 20.0358983 1361.18819588 24.98097229 1361.19691467 C36.91661699 1361.21664066 48.85226249 1361.22674044 60.7879194 1361.23564246 C66.41670116 1361.24003175 72.04548198 1361.2453969 77.674263 1361.25063133 C96.39942606 1361.26763984 115.12458855 1361.28213231 133.84975815 1361.28938007 C138.70468903 1361.29128978 143.55961991 1361.29321014 148.41455078 1361.29516602 C150.22442405 1361.29589163 150.22442405 1361.29589163 152.07086042 1361.2966319 C171.60120696 1361.30492595 191.13149214 1361.33025402 210.66181192 1361.36274669 C230.73912979 1361.39587553 250.81641654 1361.4138341 270.89376187 1361.41702431 C282.15588518 1361.41918403 293.41791899 1361.42785361 304.68001556 1361.45348549 C314.27443844 1361.47527219 323.86875007 1361.4832039 333.46319488 1361.47351871 C338.35088916 1361.468997 343.23835429 1361.47073505 348.12601662 1361.49028015 C374.13836849 1361.58829056 397.40974029 1361.26220517 421 1349 C422.12148437 1348.41992188 423.24296875 1347.83984375 424.3984375 1347.2421875 C440.39582807 1338.40044207 453.42332244 1325.48106259 463 1310 C463.35336426 1309.4318457 463.70672852 1308.86369141 464.07080078 1308.27832031 C474.41727607 1291.2713314 479.31382283 1271.54911511 479.27415466 1251.75909424 C479.27939134 1250.45525213 479.28462802 1249.15141002 479.29002339 1247.80805755 C479.30411324 1244.21319834 479.3058684 1240.61842597 479.30542648 1237.02354312 C479.30708279 1233.13639995 479.32016473 1229.24929171 479.33161926 1225.36216736 C479.35440949 1216.87188416 479.36238403 1208.38162606 479.36744571 1199.89131641 C479.37071093 1194.58002415 479.37723852 1189.26873906 479.3844471 1183.95745087 C479.4040084 1169.22461812 479.42041431 1154.49179203 479.42332363 1139.75894547 C479.4235112 1138.81722783 479.42369877 1137.87551019 479.42389202 1136.90525566 C479.42425825 1134.99650017 479.42462195 1133.08774469 479.42498314 1131.1789892 C479.42516595 1130.23159757 479.42534876 1129.28420594 479.42553711 1128.30810547 C479.42571766 1127.35954397 479.42589821 1126.41098247 479.42608423 1125.43367669 C479.42962053 1110.08787809 479.45661095 1094.74222029 479.494035 1079.39647046 C479.53223401 1063.60524687 479.55148197 1047.81409291 479.55178314 1032.02282214 C479.55236525 1023.17124427 479.56069664 1014.3198342 479.58978081 1005.46829987 C479.61445082 997.9259319 479.62147366 990.38379288 479.60653328 982.84139535 C479.5994265 979.00257767 479.59994686 975.1642106 479.62294388 971.32544518 C479.74283021 950.04876812 478.70693294 929.38712502 469 910 C468.45988281 908.84886719 467.91976563 907.69773437 467.36328125 906.51171875 C454.99796701 881.07020987 432.36956744 861.61135813 405.75 852.25 C389.07731983 847.23768585 373.62332804 845.44018569 356.22387695 845.66040039 C354.00749201 845.67298203 351.79109504 845.68357401 349.57469177 845.69235229 C344.84344774 845.7141026 340.11248035 845.74735857 335.38137245 845.78923225 C327.89636293 845.85303795 320.41156196 845.87594909 312.92631531 845.89097595 C302.43366942 845.91438926 291.94107389 845.94248496 281.44848633 845.98510742 C280.45393244 845.98912956 280.45393244 845.98912956 279.43928655 845.99323296 C268.65949187 846.03798828 257.88014388 846.11694877 247.10062549 846.20463891 C235.99419876 846.29378651 224.88821472 846.33221201 213.78141946 846.32950205 C207.55984591 846.33004682 201.34044933 846.35491332 195.11937904 846.43742561 C189.28008804 846.51484463 183.44371824 846.53223791 177.60401344 846.50362778 C175.46414331 846.50397175 173.32414197 846.526575 171.18478012 846.57321358 C155.41522029 846.89949424 155.41522029 846.89949424 151.36387837 843.71324217 C148.3203601 840.22281307 146.66276908 836.30711892 145 832 C144.27723541 830.71884028 143.5296013 829.45070242 142.73754883 828.21118164 C142.14997803 827.20434326 141.56240723 826.19750488 140.95703125 825.16015625 C140.62656296 824.59501816 140.29609467 824.02988007 139.95561218 823.44761658 C139.26176798 822.26077594 138.56855496 821.07356607 137.87597656 819.88598633 C136.02064572 816.70474986 134.16034127 813.52642177 132.30078125 810.34765625 C131.74555283 809.39809555 131.74555283 809.39809555 131.17910767 808.42935181 C127.9698474 802.94275332 124.73887215 797.46916848 121.5 792 C116.10569412 782.88736355 110.74798426 773.75352711 105.39648438 764.61572266 C100.78036184 756.73428787 96.15255748 748.86000241 91.5 741 C86.10590034 731.88724072 80.74798484 722.7535281 75.39648438 713.61572266 C70.78036184 705.73428787 66.15255748 697.86000241 61.5 690 C56.10590034 680.88724072 50.74798484 671.7535281 45.39648438 662.61572266 C40.78036184 654.73428787 36.15255748 646.86000241 31.5 639 C26.10590034 629.88724072 20.74798484 620.7535281 15.39648438 611.61572266 C10.78036184 603.73428787 6.15255748 595.86000241 1.5 588 C-3.89409966 578.88724072 -9.25201516 569.7535281 -14.60351562 560.61572266 C-19.21963816 552.73428787 -23.84744252 544.86000241 -28.5 537 C-33.52332984 528.51361702 -38.51615542 520.00960251 -43.5 511.5 C-48.65408975 502.70088789 -53.81449072 493.90565139 -59 485.125 C-59.52166748 484.24030029 -60.04333496 483.35560059 -60.58081055 482.4440918 C-62.95947441 478.41769377 -65.35527318 474.40417293 -67.80078125 470.41796875 C-68.22810547 469.71849121 -68.65542969 469.01901367 -69.09570312 468.29833984 C-69.87882529 467.02026688 -70.66746522 465.74555004 -71.46289062 464.47509766 C-73.14253881 461.73247212 -74 460.28478577 -74 457 C-73.175 456.79246094 -72.35 456.58492187 -71.5 456.37109375 C-43.67969395 448.95027551 -18.71369417 432.91793403 -3.71484375 407.73144531 C6.99090902 389.03708426 13.49210047 369.05625077 13.39440918 347.39196777 C13.40050028 346.09695862 13.40659139 344.80194947 13.41286707 343.46769762 C13.42909593 339.91603476 13.42698398 336.36459632 13.4214921 332.8129096 C13.41880046 328.96536458 13.43339362 325.11787656 13.44558716 321.27035522 C13.46655638 313.74771449 13.47118683 306.22515096 13.46939927 298.70248443 C13.46808695 292.57980946 13.47191968 286.45715839 13.47932434 280.33448792 C13.48142376 278.56466818 13.48352136 276.79484844 13.48561716 275.02502871 C13.48666069 274.14386308 13.48770422 273.26269746 13.48877937 272.35482985 C13.50764861 255.71910697 13.50664219 239.08342827 13.49981004 222.44769913 C13.49424124 207.27351141 13.51503763 192.09949286 13.54817051 176.92534465 C13.58201783 161.30122925 13.59706187 145.67719463 13.59245348 130.05304193 C13.59021937 121.29878239 13.59529523 112.54467903 13.62034607 103.79045105 C13.64150285 96.33417423 13.64481069 88.87813917 13.62604648 81.42185193 C13.61697486 77.62756805 13.61547639 73.83373309 13.63640213 70.03948593 C13.75136318 47.68336466 11.67531889 27.86516009 2.453125 7.3359375 C1.34989 4.80324209 0.60648299 2.65535331 0 0 Z " fill="#DF6C0C" transform="translate(1313,299)"/>
<path d="M0 0 C1.64598372 -0.00330265 3.29196663 -0.00702906 4.93794852 -0.01114148 C9.45136317 -0.02112428 13.96476452 -0.02487227 18.47818863 -0.02753079 C23.35034821 -0.031445 28.22249737 -0.04102262 33.09465027 -0.04974365 C44.85718492 -0.06947795 56.61972039 -0.07957102 68.38226745 -0.08847144 C73.92886502 -0.09285985 79.47546166 -0.09822527 85.02205849 -0.10346031 C103.47353129 -0.12047056 121.92500352 -0.13496269 140.37648296 -0.14220905 C145.16145516 -0.14411878 149.94642736 -0.14603914 154.73139954 -0.147995 C156.51520552 -0.14872061 156.51520552 -0.14872061 158.335048 -0.14946087 C177.5809314 -0.15775359 196.8267525 -0.18307862 216.07260873 -0.21557567 C235.85609174 -0.24870664 255.63954316 -0.26666332 275.42305404 -0.26985329 C286.52087222 -0.27201294 297.61859957 -0.28068139 308.71639061 -0.30631447 C318.17176652 -0.32810419 327.62702953 -0.33603146 337.0824277 -0.32634769 C341.89923199 -0.32182668 346.71580376 -0.32355979 351.53257561 -0.34310913 C375.70595025 -0.4356927 398.66471279 -0.4582634 420.95576477 10.14717102 C421.57644836 10.44107727 422.19713196 10.73498352 422.83662415 11.03779602 C450.23231894 24.21900697 469.02342921 46.46048974 480.20576477 74.45967102 C485.9362764 92.23219056 486.54871064 109.38821001 486.49332249 127.92924857 C486.4862429 131.77533135 486.50239384 135.62133395 486.51531982 139.46739197 C486.53682071 146.9763384 486.53686895 154.48513246 486.52869428 161.99409948 C486.5223617 168.10475041 486.52356095 174.21535733 486.52996635 180.32600784 C486.53086801 181.19993523 486.53176966 182.07386261 486.53269864 182.97427265 C486.53455009 184.75036915 486.53641265 186.52646565 486.5382862 188.30256213 C486.5548163 204.90968073 486.54618651 221.51671405 486.52930062 238.12382747 C486.51460919 253.27251189 486.52923276 268.42099785 486.55807079 283.56965671 C486.58755754 299.17698246 486.59841005 314.78421691 486.58888859 330.39156926 C486.58786618 332.16128038 486.58687156 333.93099151 486.58590508 335.70070267 C486.58519049 337.00634368 486.58519049 337.00634368 486.58446147 338.33836129 C486.5823095 344.43070199 486.59203611 350.52295504 486.6066761 356.61527634 C486.6243085 364.05573373 486.62392742 371.4959385 486.60132445 378.93638645 C486.59028 382.72247286 486.58679265 386.50811603 486.60562515 390.29418182 C486.7756069 427.17229424 477.87659465 458.3116793 452.14326477 485.39717102 C439.78295373 497.27085564 418.08176861 512.86128199 400.26899719 513.19795227 C399.50563049 513.18119446 398.74226379 513.16443665 397.95576477 513.14717102 C401.50816535 520.58176525 405.53880755 527.6182484 409.83076477 534.64717102 C415.14483143 543.42192543 420.35598724 552.24574116 425.45576477 561.14717102 C430.36300656 569.7050936 435.35682993 578.20206019 440.45576477 586.64717102 C446.20437541 596.1683074 451.79793688 605.76883364 457.33076477 615.41670227 C461.62078343 622.87954723 466.00659504 630.27823365 470.45576477 637.64717102 C476.20437541 647.1683074 481.79793688 656.76883364 487.33076477 666.41670227 C491.62078343 673.87954723 496.00659504 681.27823365 500.45576477 688.64717102 C506.20437541 698.1683074 511.79793688 707.76883364 517.33076477 717.41670227 C521.62078343 724.87954723 526.00659504 732.27823365 530.45576477 739.64717102 C536.20437541 749.1683074 541.79793688 758.76883364 547.33076477 768.41670227 C551.62078343 775.87954723 556.00659504 783.27823365 560.45576477 790.64717102 C566.20437541 800.1683074 571.79793688 809.76883364 577.33076477 819.41670227 C582.22146054 827.92447511 587.25204899 836.34113449 592.32417297 844.74165344 C597.43980489 853.23564627 602.4162394 861.80490666 607.33076477 870.41670227 C608.46251085 872.39400577 609.61692644 874.3585071 610.79367542 876.30936337 C612.46871302 879.16522951 613.84608565 882.08184659 615.19972515 885.10223484 C619.54507216 894.61069016 619.54507216 894.61069016 627.18877244 901.29340434 C633.57612248 903.08429148 640.13468163 902.66300086 646.69917297 902.43013 C648.89019918 902.42615974 651.08125672 902.431092 653.27224731 902.44419861 C659.20169242 902.45528341 665.12329403 902.34428871 671.05104089 902.21232104 C677.28065548 902.09622514 683.51019578 902.09834805 689.74072266 902.08883667 C700.21340292 902.05787377 710.68363627 901.96089678 721.15522766 901.80854797 C739.76425866 901.53825111 758.37325139 901.38819751 776.98400402 901.28408146 C778.25825326 901.2769425 779.5325025 901.26980354 780.84536535 901.26244825 C783.38968357 901.24832939 785.93400366 901.23454455 788.47832555 901.2211023 C795.86712877 901.17850877 803.25445301 901.10069966 810.64255965 900.99116886 C815.27062136 900.92620043 819.89875034 900.88177515 824.52708244 900.84109879 C826.64774341 900.81771463 828.76833169 900.78547952 830.88869476 900.74293327 C865.18117168 900.06592598 895.43387333 911.04847276 920.64326477 934.39717102 C934.21210277 948.85241552 944.50516455 966.84032503 948.95576477 986.14717102 C949.21810551 987.21403733 949.48044625 988.28090364 949.75073671 989.38009924 C951.68622972 997.65658446 952.38802938 1005.39311805 952.35017395 1013.87582397 C952.35626505 1015.18378935 952.36235616 1016.49175472 952.36863184 1017.83935541 C952.38486343 1021.42715291 952.38274818 1025.0147283 952.37725687 1028.60254943 C952.37456561 1032.48893024 952.38915763 1036.37525458 952.40135193 1040.26161194 C952.42232209 1047.86011792 952.42695157 1055.45854746 952.42516404 1063.05707897 C952.42385187 1069.24078456 952.42768369 1075.4244665 952.43508911 1081.60816765 C952.43718852 1083.3954156 952.43928612 1085.18266356 952.44138193 1086.96991152 C952.44242546 1087.85973997 952.44346899 1088.74956843 952.44454414 1089.66636138 C952.46341345 1106.46562814 952.46240682 1123.26485115 952.45557481 1140.0641241 C952.45000491 1155.39095005 952.4708071 1170.71760855 952.50393528 1186.04439539 C952.53777296 1201.82331752 952.5528279 1217.60215968 952.54821825 1233.38111871 C952.54598332 1242.22309518 952.55107241 1251.06491702 952.57611084 1259.90686226 C952.59725497 1267.43709448 952.6005876 1274.96708735 952.58181125 1282.49732984 C952.57273237 1286.32996829 952.57126446 1290.1621621 952.5921669 1293.99476433 C952.75872514 1326.67796171 946.71506268 1357.31884602 923.95576477 1382.14717102 C923.12431946 1383.05982727 922.29287415 1383.97248352 921.43623352 1384.91279602 C902.36541716 1404.90504275 875.56340244 1417.61655786 847.76228165 1418.48898857 C844.06359943 1418.54708844 840.36685279 1418.5398806 836.6678772 1418.52139282 C834.98453702 1418.5241405 833.30119858 1418.5281986 831.61786431 1418.53343648 C827.03860248 1418.54392827 822.45953857 1418.53595678 817.88028562 1418.52468598 C812.92389015 1418.51578538 807.96751896 1418.52430422 803.01112366 1418.5305481 C793.32070799 1418.54000355 783.63036714 1418.53346517 773.93995706 1418.52128515 C762.6438778 1418.50761918 751.34781608 1418.50930702 740.05173066 1418.51141848 C719.8923667 1418.51460351 699.73303815 1418.50296779 679.57368469 1418.48335266 C660.03135602 1418.46434302 640.48906883 1418.45726772 620.94673157 1418.46284485 C599.63934867 1418.46890776 578.33198398 1418.46871676 557.02460259 1418.45735902 C554.75114485 1418.45615178 552.4776871 1418.4549458 550.20422935 1418.45374107 C549.08578554 1418.45313753 547.96734172 1418.452534 546.81500566 1418.45191217 C538.94865231 1418.44803951 531.08230576 1418.44842408 523.21595192 1418.45032692 C513.62660796 1418.45245278 504.03730025 1418.44719501 494.44796649 1418.43271337 C489.55926044 1418.42548887 484.67060707 1418.42137575 479.78189659 1418.42595673 C475.30070562 1418.43005361 470.81962312 1418.42480987 466.33844855 1418.41233065 C464.7236347 1418.4094195 463.10881051 1418.40981089 461.4939994 1418.41397373 C449.08655854 1418.44303752 437.0298405 1417.65006811 425.20576477 1413.58467102 C424.07606262 1413.19831482 424.07606262 1413.19831482 422.92353821 1412.80415344 C408.64754765 1407.70579792 396.32779439 1400.11037635 384.95576477 1390.14717102 C384.13721008 1389.43045227 383.3186554 1388.71373352 382.47529602 1387.97529602 C363.11022986 1369.74128682 350.31740256 1342.54825208 348.77136564 1315.97809112 C348.70021467 1312.56508323 348.6890095 1309.15731748 348.70179749 1305.74359131 C348.6986775 1304.44661334 348.69555752 1303.14963536 348.692343 1301.81335503 C348.68406193 1298.24736911 348.68808948 1294.68149144 348.69431543 1291.11550534 C348.69886652 1287.25656694 348.6918431 1283.39764633 348.68635559 1279.53871155 C348.67748841 1271.99275511 348.67937157 1264.44683859 348.68518087 1256.90088063 C348.68970758 1250.76567433 348.69030591 1244.63047917 348.68813324 1238.49527168 C348.68782677 1237.620284 348.68752031 1236.74529632 348.68720455 1235.84379386 C348.68656507 1234.06598631 348.68591664 1232.28817876 348.68525937 1230.51037122 C348.679564 1213.86211845 348.68610168 1197.21388775 348.6968601 1180.56563861 C348.70579646 1166.29536038 348.70424133 1152.02511468 348.69502258 1137.75483704 C348.68430863 1121.16240166 348.6801116 1104.56998559 348.68624711 1087.97754723 C348.68688418 1086.20678302 348.68751292 1084.43601881 348.68813324 1082.66525459 C348.68844179 1081.79411932 348.68875034 1080.92298405 348.68906824 1080.02545075 C348.69079169 1073.90047111 348.68788767 1067.77550378 348.68317413 1061.65052605 C348.67755287 1054.18223643 348.67910797 1046.71398882 348.68973562 1039.24570399 C348.69497534 1035.43875842 348.69707817 1031.6318828 348.69043732 1027.82493782 C348.6833356 1023.6911539 348.69184139 1019.55754511 348.70179749 1015.42376709 C348.69733604 1014.23056317 348.6928746 1013.03735926 348.68827796 1011.80799764 C348.82049786 983.44647524 360.46125628 958.16052115 378.95576477 937.14717102 C379.48170227 936.53744446 380.00763977 935.9277179 380.54951477 935.29951477 C397.53748278 916.96811052 423.31649802 905.28701637 447.95576477 903.14717102 C451.86278967 903.01859453 455.7657334 903.03034491 459.67451477 903.04951477 C460.77299744 903.05092972 461.8714801 903.05234467 463.00325012 903.05380249 C466.4874502 903.05936845 469.97158435 903.07191463 473.45576477 903.08467102 C475.82815967 903.08969042 478.20055559 903.09425256 480.57295227 903.0983429 C486.36724533 903.10932672 492.16150034 903.12603072 497.95576477 903.14717102 C493.04242582 894.36526005 488.1101231 885.60314679 482.95576477 876.95967102 C479.24310159 870.7067353 475.54016717 864.44849845 471.86982727 858.17060852 C471.52042084 857.57302734 471.1710144 856.97544617 470.8110199 856.35975647 C470.09564101 855.13615356 469.38027859 853.91254101 468.66493225 852.68891907 C462.94667104 842.90899588 457.18212021 833.1608456 451.33076477 823.45967102 C445.62693129 814.00117743 440.07797241 804.46207674 434.58247375 794.88130188 C430.26842246 787.37740585 425.8626362 779.93450501 421.39326477 772.52217102 C414.7679095 761.53419501 408.28425108 750.46932358 401.83613586 739.37666321 C398.36688774 733.41831288 394.88037747 727.47007861 391.39326477 721.52217102 C391.03105835 720.90426697 390.66885193 720.28636292 390.29566956 719.6497345 C385.18322776 710.92950077 380.05116725 702.22105098 374.90205383 693.52241516 C370.46059692 686.01427061 366.0505583 678.48789042 361.64326477 670.95967102 C356.108342 661.5056258 350.54811718 652.06739939 344.95576477 642.64717102 C338.9971623 632.61000027 333.07812788 622.55053059 327.18086243 612.47724915 C322.62227456 604.69077733 318.05198873 596.91151166 313.45576477 589.14717102 C309.9367932 583.20261867 306.42747761 577.25258671 302.93623352 571.29170227 C302.58699326 570.69542023 302.23775299 570.09913818 301.87792969 569.48478699 C300.44130606 567.03146547 299.00494262 564.57799263 297.56950378 562.12397766 C293.53352025 555.22449944 289.48103416 548.33568891 285.38545227 541.47138977 C285.01606033 540.85149673 284.6466684 540.2316037 284.26608276 539.59292603 C282.50054839 536.63027501 280.73172013 533.66970073 278.95649719 530.71284485 C278.32848206 529.65992249 277.70046692 528.60700012 277.05342102 527.52217102 C276.50178284 526.6017804 275.95014465 525.68138977 275.38179016 524.73310852 C273.95576477 522.14717102 273.95576477 522.14717102 271.95576477 517.14717102 C213.54576477 517.14717102 155.13576477 517.14717102 94.95576477 517.14717102 C94.29576477 519.12717102 93.63576477 521.10717102 92.95576477 523.14717102 C92.02675733 524.89061662 91.04063552 526.60455026 90.00654602 528.28779602 C89.4137384 529.262005 88.82093079 530.23621399 88.2101593 531.23994446 C87.56933411 532.28182922 86.92850891 533.32371399 86.26826477 534.39717102 C84.89529103 536.65647816 83.52381347 538.91660918 82.15498352 541.17842102 C81.62910645 542.046091 81.62910645 542.046091 81.09260559 542.93128967 C77.50171857 548.86990548 74.03333886 554.87723898 70.58076477 560.89717102 C65.29009593 570.11019638 59.95922245 579.29773598 54.58076477 588.45967102 C54.22677612 589.06275085 53.87278748 589.66583069 53.5080719 590.28718567 C51.71025044 593.34971744 49.91177921 596.41186696 48.11299133 599.47383118 C44.91005511 604.92671157 41.71294548 610.38300738 38.51542664 615.83906555 C36.74963873 618.85203684 34.98357358 621.86484559 33.21748352 624.87763977 C32.8674678 625.47474762 32.51745209 626.07185547 32.15682983 626.6870575 C30.00214974 630.36266823 27.84690878 634.0379495 25.69126892 637.71299744 C18.76732517 649.5173444 11.84701608 661.32369327 4.95576477 673.14717102 C-0.13617232 681.88352414 -5.24180022 690.61177001 -10.35673523 699.33467102 C-10.7116806 699.93999664 -11.06662598 700.54532227 -11.43232727 701.16899109 C-14.33371296 706.11678063 -17.23577681 711.06417231 -20.13786316 716.0115509 C-22.66946667 720.32740753 -25.2008092 724.64341706 -27.73173523 728.95967102 C-28.0869223 729.56539948 -28.44210937 730.17112793 -28.80805969 730.79521179 C-33.56384739 738.9064802 -38.30946256 747.02361309 -43.04423523 755.14717102 C-50.29748662 767.59174059 -57.58321401 780.01718304 -64.87089539 792.44160461 C-67.01647941 796.09963965 -69.16134022 799.75809832 -71.30595398 803.41670227 C-71.83098511 804.31237915 -71.83098511 804.31237915 -72.36662292 805.22615051 C-73.42583959 807.03314999 -74.48504056 808.84015866 -75.54423523 810.64717102 C-79.46503048 817.33614492 -83.38586432 824.02509552 -87.30867004 830.71289062 C-89.11653387 833.79504788 -90.92417869 836.87733354 -92.73173523 839.95967102 C-93.26292969 840.86545395 -93.26292969 840.86545395 -93.80485535 841.78953552 C-98.64711134 850.04733611 -103.47564277 858.31303536 -108.29423523 866.58467102 C-112.93936005 874.55576135 -117.60473873 882.51459684 -122.29423523 890.45967102 C-122.84369812 891.39158264 -123.39316101 892.32349426 -123.95927429 893.28364563 C-124.46684265 894.14224182 -124.97441101 895.00083801 -125.49736023 895.88545227 C-125.94240906 896.6386676 -126.38745789 897.39188293 -126.84599304 898.16792297 C-127.86760205 899.85540958 -128.9500132 901.50583797 -130.04423523 903.14717102 C-129.47033051 903.14050919 -128.89642578 903.13384735 -128.30513 903.12698364 C-122.23612678 903.05970004 -116.16723236 903.01499264 -110.09794617 902.9823761 C-107.84432154 902.96745249 -105.5907251 902.94710631 -103.33720398 902.92085266 C-86.63151425 902.73135307 -69.5832353 902.61854033 -53.91923523 909.27217102 C-53.18825623 909.57075012 -52.45727722 909.86932922 -51.70414734 910.17695618 C-39.27525396 915.41426333 -28.02646198 922.01878949 -18.04423523 931.14717102 C-17.20505554 931.90513977 -16.36587585 932.66310852 -15.50126648 933.44404602 C2.89835275 950.90228938 17.14008958 977.22193995 18.05267215 1002.87083364 C18.09661653 1006.25887774 18.10827597 1009.6457095 18.10966492 1013.03404236 C18.11404717 1014.33602676 18.11842942 1015.63801116 18.12294447 1016.97944963 C18.13485607 1020.58299563 18.14054582 1024.18652828 18.14512563 1027.79009008 C18.15110262 1031.68134777 18.16270739 1035.57258968 18.17341614 1039.46383667 C18.19789604 1048.85820595 18.21256276 1058.25258043 18.22547621 1067.64697176 C18.22919198 1070.30387837 18.23316492 1072.96078447 18.23722887 1075.61769056 C18.26247415 1092.14300292 18.28451115 1108.66831619 18.29695702 1125.19364357 C18.29988636 1129.01832202 18.30284807 1132.84300045 18.30586243 1136.66767883 C18.3069815 1138.0934593 18.3069815 1138.0934593 18.30812319 1139.54804341 C18.32075689 1154.92056802 18.35395548 1170.29297644 18.39566426 1185.66544683 C18.43820648 1201.47577408 18.46166635 1217.28604207 18.46687758 1233.09642637 C18.47027828 1241.96199874 18.48187365 1250.82738971 18.51498032 1259.69290543 C18.54315169 1267.24890617 18.55390609 1274.8046883 18.54278485 1282.36073746 C18.53764106 1286.20751869 18.54020089 1290.05384339 18.5652504 1293.90055656 C18.76682814 1326.62505734 12.74641798 1357.28464025 -10.04423523 1382.14717102 C-10.87568054 1383.05982727 -11.70712585 1383.97248352 -12.56376648 1384.91279602 C-31.0652399 1404.30819129 -56.84455979 1416.9985751 -83.80607498 1418.33341646 C-88.1542666 1418.42861628 -92.50214734 1418.41423494 -96.85110474 1418.40113831 C-98.53099151 1418.40344641 -100.21087728 1418.40662527 -101.89076096 1418.41059279 C-106.47901912 1418.41890146 -111.06719353 1418.41483346 -115.65545189 1418.40862036 C-120.6146418 1418.40408069 -125.57381767 1418.41108715 -130.53300476 1418.4165802 C-140.23732044 1418.42545989 -149.94160512 1418.42355848 -159.645922 1418.41775492 C-167.53549662 1418.41323257 -175.42506259 1418.41262801 -183.31463814 1418.41480255 C-184.43883089 1418.41510902 -185.56302363 1418.41541548 -186.72128283 1418.41573124 C-189.00528892 1418.41637071 -191.289295 1418.41701913 -193.57330108 1418.41767642 C-214.97623579 1418.42337561 -236.37915335 1418.4168284 -257.78208525 1418.40607569 C-276.13257938 1418.39714177 -294.4830482 1418.3986917 -312.83354187 1418.40791321 C-334.15993751 1418.4186252 -355.48631812 1418.42282504 -376.81271607 1418.41668868 C-379.08848289 1418.41605161 -381.36424972 1418.41542286 -383.64001656 1418.41480255 C-384.75964032 1418.414494 -385.87926409 1418.41418545 -387.03281585 1418.41386755 C-394.90914326 1418.41214331 -402.78546111 1418.4150499 -410.66178703 1418.41976166 C-420.26586373 1418.42538086 -429.86990775 1418.42383224 -439.47398072 1418.41320017 C-444.37076223 1418.40795727 -449.26748933 1418.4058631 -454.1642704 1418.41249847 C-458.653019 1418.41848878 -463.14166312 1418.4151323 -467.63040233 1418.40454337 C-469.24802901 1418.40232233 -470.86566464 1418.40341623 -472.48328548 1418.40829495 C-484.90035273 1418.44285104 -496.96032878 1417.65118085 -508.79423523 1413.58467102 C-509.5444696 1413.32927551 -510.29470398 1413.07388 -511.06767273 1412.81074524 C-523.618227 1408.34302076 -535.09663975 1402.04311429 -545.04423523 1393.14717102 C-546.26820007 1392.11849915 -546.26820007 1392.11849915 -547.51689148 1391.06904602 C-561.75761235 1378.83127043 -571.58753668 1364.12799152 -578.41923523 1346.77217102 C-578.74101746 1345.97174377 -579.06279968 1345.17131653 -579.39433289 1344.34663391 C-585.91078804 1326.8941817 -585.48011249 1308.87668615 -585.42175019 1290.53517723 C-585.4128111 1286.67973207 -585.42137917 1282.82431711 -585.4276123 1278.96887207 C-585.43704482 1271.44028991 -585.43055036 1263.91180437 -585.41834936 1256.38322945 C-585.40465477 1247.60270179 -585.40637364 1238.82219652 -585.40848269 1230.04166089 C-585.41166419 1214.37173309 -585.4000511 1198.70185092 -585.38041687 1183.03193665 C-585.36139676 1167.84800326 -585.35433548 1152.66412328 -585.35990906 1137.48017883 C-585.36597301 1120.91150929 -585.36577999 1104.34286316 -585.35442322 1087.77419555 C-585.35321602 1086.0063177 -585.35201004 1084.23843984 -585.35080528 1082.47056198 C-585.35020174 1081.60090165 -585.34959821 1080.73124132 -585.34897638 1079.83522765 C-585.34510592 1073.72271564 -585.34548739 1067.61021238 -585.34739113 1061.49769974 C-585.34951767 1054.04782591 -585.34425378 1046.59799872 -585.32977758 1039.148138 C-585.3225576 1035.35128683 -585.31843608 1031.55450342 -585.32302094 1027.75764656 C-585.32787793 1023.63507177 -585.31713937 1019.51268104 -585.30493164 1015.39012146 C-585.30871096 1014.20032814 -585.31249029 1013.01053482 -585.31638414 1011.78468716 C-585.27931382 1004.69341882 -584.56884004 998.07193044 -583.04423523 991.14717102 C-582.63624695 989.26965149 -582.63624695 989.26965149 -582.22001648 987.35420227 C-577.27144035 967.89577398 -568.23580472 952.32352711 -555.04423523 937.14717102 C-554.51700867 936.53486633 -553.9897821 935.92256165 -553.44657898 935.29170227 C-536.12454529 916.64061229 -509.10465814 904.15607198 -483.8137846 903.04958808 C-481.35093003 903.00587617 -478.88967943 902.99174173 -476.42643738 902.98895264 C-475.48855204 902.98401466 -474.5506667 902.97907668 -473.5843606 902.97398907 C-470.45835696 902.95869593 -467.33237372 902.95027575 -464.2063446 902.94184875 C-461.95888593 902.93226379 -459.71142903 902.92225335 -457.463974 902.91184998 C-451.37374429 902.88486186 -445.28350688 902.86381935 -439.19325066 902.84384799 C-432.82443216 902.82195079 -426.45563723 902.79458039 -420.08683777 902.76779175 C-409.40077195 902.72358031 -398.71469861 902.68273662 -388.02861023 902.64448547 C-377.02469437 902.6050874 -366.02078928 902.56365093 -355.01689148 902.51948547 C-354.33795828 902.5167612 -353.65902507 902.51403693 -352.95951813 902.5112301 C-349.55331483 902.49754991 -346.14711169 902.48382978 -342.74090862 902.47008979 C-314.50870664 902.35625798 -286.2764811 902.24949143 -258.04423523 902.14717102 C-257.70242375 901.54790141 -257.36061228 900.9486318 -257.00844288 900.33120251 C-255.44054036 897.58297457 -253.87190977 894.83516286 -252.30326843 892.08735657 C-251.76565132 891.14476738 -251.22803421 890.20217819 -250.67412567 889.2310257 C-246.59966817 882.09550414 -242.4480688 875.01237563 -238.23173523 867.95967102 C-232.87223088 858.95650509 -227.57800742 849.91896762 -222.35673523 840.83467102 C-217.32356419 832.07900298 -212.23932672 823.35709704 -207.08940125 814.66963196 C-202.63510475 807.15447915 -198.21007021 799.62245553 -193.79423523 792.08467102 C-193.07117357 790.85070205 -192.34811041 789.61673395 -191.62504578 788.38276672 C-188.35302725 782.79817585 -185.08248453 777.21272214 -181.81297302 771.62666321 C-180.036374 768.59155117 -178.25916798 765.55679487 -176.48173523 762.52217102 C-176.13052612 761.92245483 -175.77931702 761.32273865 -175.41746521 760.70484924 C-170.28212352 751.93800523 -165.11004874 743.19381194 -159.91923523 734.45967102 C-154.02394437 724.53749866 -148.22503046 714.5635796 -142.47294617 704.55781555 C-138.06480587 696.8963795 -133.59671097 689.27306156 -129.08940125 681.66963196 C-124.63510537 674.1544802 -120.20992639 666.62253907 -115.79423523 659.08467102 C-115.43670166 658.47441071 -115.07916809 657.86415039 -114.71080017 657.23539734 C-112.88487102 654.1187181 -111.05920417 651.00188534 -109.23368835 647.88496399 C-106.02493985 642.40659115 -102.81375173 636.92964855 -99.60270691 631.45262146 C-97.83311257 628.43419882 -96.06368235 625.41567997 -94.29423523 622.39717102 C-93.58590268 621.18883723 -92.87756935 619.98050389 -92.16923523 618.77217102 C-91.81861023 618.17404602 -91.46798523 617.57592102 -91.10673523 616.95967102 C-70.91923521 582.52217099 -70.91923521 582.52217099 -69.8568573 580.70988464 C-69.1481108 579.50084291 -68.43937057 578.29179749 -67.7306366 577.08274841 C-65.96617595 574.07272358 -64.20160844 571.0627615 -62.43681335 568.05293274 C-59.17321017 562.48665941 -55.91060712 556.91980779 -52.65167236 551.35079956 C-37.2762133 525.07684425 -37.2762133 525.07684425 -30.04423523 513.14717102 C-31.21986023 513.10592102 -32.39548523 513.06467102 -33.60673523 513.02217102 C-50.67136837 511.04907281 -68.6703225 499.49148436 -81.04423523 488.14717102 C-81.96849304 487.30412415 -82.89275085 486.46107727 -83.84501648 485.59248352 C-97.39727014 472.65879745 -106.08191662 456.85193459 -112.41923523 439.39717102 C-112.65795349 438.74909485 -112.89667175 438.10101868 -113.1426239 437.43330383 C-116.71679158 427.06627859 -117.33859692 416.51914444 -117.29820251 405.63642883 C-117.3013225 404.32790577 -117.30444248 403.01938271 -117.307657 401.67120743 C-117.31593923 398.07294773 -117.31190997 394.4747953 -117.30568457 390.87653542 C-117.30113392 386.98281281 -117.30815672 383.08910783 -117.31364441 379.19538879 C-117.3225123 371.58091708 -117.32062804 363.96648491 -117.31481913 356.35201168 C-117.31029237 350.16055923 -117.30969411 343.96911782 -117.31186676 337.77766418 C-117.31217323 336.89463914 -117.31247969 336.0116141 -117.31279545 335.10183072 C-117.31343493 333.3076779 -117.31408336 331.51352509 -117.31474063 329.71937227 C-117.32043629 312.91705284 -117.31389802 296.11475528 -117.3031399 279.31243944 C-117.29420508 264.91228694 -117.29575734 250.51216669 -117.30497742 236.11201477 C-117.31569355 219.36758265 -117.31988704 202.62316966 -117.31375289 185.87873459 C-117.31311583 184.09138235 -117.31248709 182.3040301 -117.31186676 180.51667786 C-117.31155821 179.63739097 -117.31124966 178.75810408 -117.31093176 177.85217214 C-117.30920885 171.67205802 -117.3121112 165.4919561 -117.31682587 159.31184387 C-117.32244963 151.77477912 -117.32088688 144.237756 -117.31026438 136.70069599 C-117.30502776 132.85919721 -117.30291645 129.01776771 -117.30956268 125.17626953 C-117.31667271 121.00342444 -117.30815204 116.8307525 -117.29820251 112.65791321 C-117.30266396 111.45594929 -117.3071254 110.25398537 -117.31172204 109.0155983 C-117.18602832 81.75412561 -107.25682251 58.8755208 -90.04423523 38.14717102 C-89.60337585 37.58256165 -89.16251648 37.01795227 -88.70829773 36.43623352 C-72.71663819 16.15151102 -43.7857695 3.39240216 -18.69371259 0.35792315 C-12.4808543 -0.13627738 -6.22920494 -0.00113235 0 0 Z " fill="#FEFEFE" transform="translate(841.0442352294922,242.8528289794922)"/>
<path d="M0 0 C0.33 0 0.66 0 1 0 C1 24.42 1 48.84 1 74 C-23.42 74 -47.84 74 -73 74 C-73 73.67 -73 73.34 -73 73 C-71.82566406 72.74347656 -70.65132812 72.48695312 -69.44140625 72.22265625 C-52.67209685 68.32852792 -38.73328908 61.7067632 -26 50 C-25.38253906 49.4740625 -24.76507812 48.948125 -24.12890625 48.40625 C-10.39069362 35.96888429 -3.41085336 17.74242143 0 0 Z " fill="#000000" transform="translate(2047,1974)"/>
<path d="M0 0 C24.42 0 48.84 0 74 0 C74 24.42 74 48.84 74 74 C73.67 74 73.34 74 73 74 C72.74347656 72.82566406 72.48695312 71.65132813 72.22265625 70.44140625 C68.32852792 53.67209685 61.7067632 39.73328908 50 27 C49.4740625 26.38253906 48.948125 25.76507812 48.40625 25.12890625 C35.96888429 11.39069362 17.74242143 4.41085336 0 1 C0 0.67 0 0.34 0 0 Z " fill="#000000" transform="translate(1974,0)"/>
<path d="M0 0 C0.33 0 0.66 0 1 0 C1.25652344 1.17433594 1.51304688 2.34867188 1.77734375 3.55859375 C5.51579077 19.65192647 11.75333287 33.68762046 23 46 C23.86625 47.00353516 23.86625 47.00353516 24.75 48.02734375 C37.71187494 62.13455678 55.52683763 69.44866693 74 73 C74 73.33 74 73.66 74 74 C49.58 74 25.16 74 0 74 C0 49.58 0 25.16 0 0 Z " fill="#000000" transform="translate(0,1974)"/>
<path d="M0 0 C24.42 0 48.84 0 74 0 C74 0.33 74 0.66 74 1 C72.82566406 1.25652344 71.65132813 1.51304688 70.44140625 1.77734375 C54.34807353 5.51579077 40.31237954 11.75333287 28 23 C27.33097656 23.5775 26.66195313 24.155 25.97265625 24.75 C11.86544322 37.71187494 4.55133307 55.52683763 1 74 C0.67 74 0.34 74 0 74 C0 49.58 0 25.16 0 0 Z " fill="#000000" transform="translate(0,0)"/>
</svg>
