<?xml version="1.0" encoding="UTF-8"?>
<svg version="1.1" xmlns="http://www.w3.org/2000/svg" width="800" height="800">
<path d="M0 0 C1.15070984 -0.00701431 2.30141968 -0.01402863 3.48699951 -0.02125549 C7.17887326 -0.03866236 10.87058672 -0.04510747 14.5625 -0.046875 C16.45264832 -0.04788712 16.45264832 -0.04788712 18.38098145 -0.04891968 C36.32467401 -0.03362497 53.82529131 0.29561838 71.5625 3.203125 C72.68221191 3.37473145 73.80192383 3.54633789 74.95556641 3.72314453 C136.43259621 13.23147851 195.54116156 37.08839703 245.5625 74.203125 C246.14676758 74.6357666 246.73103516 75.0684082 247.33300781 75.51416016 C259.29654242 84.42689072 270.54727342 94.15384906 281.5625 104.203125 C282.57504315 105.11121 283.58808718 106.01873672 284.6015625 106.92578125 C289.69813496 111.50984922 294.58344172 116.12343501 298.99609375 121.38671875 C300.56191916 123.20245145 302.2115212 124.85255204 303.9375 126.515625 C308.06942047 130.59257536 311.65816145 135.06842895 315.27636719 139.60058594 C316.63417009 141.29242691 318.00739406 142.97089324 319.3828125 144.6484375 C371.01932176 207.92446353 404.42930695 291.4588248 404.765625 373.640625 C404.77263931 374.79133484 404.77965363 375.94204468 404.78688049 377.12762451 C404.80428736 380.81949826 404.81073247 384.51121172 404.8125 388.203125 C404.81351212 390.09327332 404.81351212 390.09327332 404.81454468 392.02160645 C404.79924997 409.96529901 404.47000662 427.46591631 401.5625 445.203125 C401.39089355 446.32283691 401.21928711 447.44254883 401.04248047 448.59619141 C391.53414649 510.07322121 367.67722797 569.18178656 330.5625 619.203125 C330.1298584 619.78739258 329.6972168 620.37166016 329.25146484 620.97363281 C320.33873428 632.93716742 310.61177594 644.18789842 300.5625 655.203125 C299.654415 656.21566815 298.74688828 657.22871218 297.83984375 658.2421875 C293.25577578 663.33875996 288.64218999 668.22406672 283.37890625 672.63671875 C281.56317355 674.20254416 279.91307296 675.8521462 278.25 677.578125 C274.17304964 681.71004547 269.69719605 685.29878645 265.16503906 688.91699219 C263.47319809 690.27479509 261.79473176 691.64801906 260.1171875 693.0234375 C196.84116147 744.65994676 113.3068002 778.06993195 31.125 778.40625 C29.97429016 778.41326431 28.82358032 778.42027863 27.63800049 778.42750549 C23.94612674 778.44491236 20.25441328 778.45135747 16.5625 778.453125 C14.67235168 778.45413712 14.67235168 778.45413712 12.74401855 778.45516968 C-5.19967401 778.43987497 -22.70029131 778.11063162 -40.4375 775.203125 C-41.55721191 775.03151855 -42.67692383 774.85991211 -43.83056641 774.68310547 C-121.84451974 762.61709112 -192.45766946 727.351303 -250.4375 674.203125 C-250.99115234 673.69990723 -251.54480469 673.19668945 -252.11523438 672.67822266 C-264.76684015 661.1721001 -264.76684015 661.1721001 -269.68359375 655.26953125 C-271.48471448 653.14749814 -273.37012638 651.11846586 -275.27441406 649.08911133 C-281.25280869 642.69652592 -286.72281437 636.00259727 -292.02832031 629.04492188 C-293.44183566 627.1974583 -294.87232846 625.3641265 -296.3046875 623.53125 C-308.96629593 607.17148037 -319.81461349 589.49994803 -329.4375 571.203125 C-329.87658691 570.37409668 -330.31567383 569.54506836 -330.76806641 568.69091797 C-349.89894591 532.32256632 -362.36435835 493.16015259 -369.25 452.703125 C-369.4449707 451.56061279 -369.63994141 450.41810059 -369.84082031 449.2409668 C-373.03076773 429.39943757 -373.81136183 409.71687248 -373.75 389.640625 C-373.74817719 388.40300415 -373.74635437 387.1653833 -373.74447632 385.89025879 C-373.70039627 368.12442056 -373.31611406 350.76407497 -370.4375 333.203125 C-370.26589355 332.08341309 -370.09428711 330.96370117 -369.91748047 329.81005859 C-360.40914649 268.33302879 -336.55222797 209.22446344 -299.4375 159.203125 C-299.0048584 158.61885742 -298.5722168 158.03458984 -298.12646484 157.43261719 C-289.21373428 145.46908258 -279.48677594 134.21835158 -269.4375 123.203125 C-268.529415 122.19058185 -267.62188828 121.17753782 -266.71484375 120.1640625 C-262.13077578 115.06749004 -257.51718999 110.18218328 -252.25390625 105.76953125 C-250.43817355 104.20370584 -248.78807296 102.5541038 -247.125 100.828125 C-243.04804964 96.69620453 -238.57219605 93.10746355 -234.04003906 89.48925781 C-232.34819809 88.13145491 -230.66973176 86.75823094 -228.9921875 85.3828125 C-165.74568801 33.77039843 -82.07137738 0.33586616 0 0 Z " fill="#323232" transform="translate(384.4375,10.796875)"/>
<path d="M0 0 C10.25524724 8.39065684 15.81559975 18.21688606 17.8125 31.3125 C19.20693841 48.17575091 16.21343582 61.82828924 7 76.125 C-1.16112189 84.28612189 -10.25154153 87.39277891 -21.625 87.75 C-32.62081158 87.4623832 -40.10648688 84.48787407 -48.02734375 76.79296875 C-51.38368375 72.93894362 -53.43258193 69.0921549 -55.1875 64.3125 C-55.66316406 63.07886719 -55.66316406 63.07886719 -56.1484375 61.8203125 C-61.00415638 46.45129402 -59.83057805 27.93077729 -53.1875 13.3125 C-48.61160644 5.03722208 -41.14267533 -1.6461197 -32.1875 -4.6875 C-21.24470596 -7.30345413 -9.35911589 -6.58006807 0 0 Z " fill="#333333" transform="translate(345.1875,341.6875)"/>
<path d="M0 0 C10.42933154 7.6647007 15.618918 17.978713 19.125 30.25 C19.125 36.19 19.125 42.13 19.125 48.25 C-8.265 48.25 -35.655 48.25 -63.875 48.25 C-60.49142211 69.76466587 -60.49142211 69.76466587 -47.41015625 86.0703125 C-37.34436273 92.33683658 -27.74666245 93.68052552 -15.9921875 91.78515625 C-7.00619212 89.4048534 -0.03314149 84.72766967 4.83984375 76.7734375 C7.05408514 72.42571733 8.64955439 67.89331413 10.125 63.25 C12.765 63.25 15.405 63.25 18.125 63.25 C17.94027604 72.4861978 13.18272731 82.30419091 7.0625 89.1875 C-4.73484941 99.70078417 -18.84816622 100.81104223 -33.875 100.25 C-43.96586061 99.34345729 -53.28293811 93.93075304 -60.09765625 86.55859375 C-71.33655322 71.96037812 -73.41334876 54.02646259 -71.4375 36.33203125 C-69.30787364 23.48772225 -63.96528026 10.86949365 -53.875 2.25 C-37.50773742 -9.09796872 -17.30581851 -10.6631811 0 0 Z " fill="#FAFAFA" transform="translate(507.875,335.75)"/>
<path d="M0 0 C10.42933154 7.6647007 15.618918 17.978713 19.125 30.25 C19.125 36.19 19.125 42.13 19.125 48.25 C-8.265 48.25 -35.655 48.25 -63.875 48.25 C-60.49142211 69.76466587 -60.49142211 69.76466587 -47.41015625 86.0703125 C-37.34436273 92.33683658 -27.74666245 93.68052552 -15.9921875 91.78515625 C-7.00619212 89.4048534 -0.03314149 84.72766967 4.83984375 76.7734375 C7.05408514 72.42571733 8.64955439 67.89331413 10.125 63.25 C12.765 63.25 15.405 63.25 18.125 63.25 C17.94027604 72.4861978 13.18272731 82.30419091 7.0625 89.1875 C-4.73484941 99.70078417 -18.84816622 100.81104223 -33.875 100.25 C-43.96586061 99.34345729 -53.28293811 93.93075304 -60.09765625 86.55859375 C-71.33655322 71.96037812 -73.41334876 54.02646259 -71.4375 36.33203125 C-69.30787364 23.48772225 -63.96528026 10.86949365 -53.875 2.25 C-37.50773742 -9.09796872 -17.30581851 -10.6631811 0 0 Z " fill="#FAFAFA" transform="translate(152.875,335.75)"/>
<path d="M0 0 C11.74730746 6.10364619 19.00098986 14.98179369 23.59375 27.34765625 C29.00588769 45.40730718 28.24073397 65.46088699 19.59375 82.34765625 C13.2596501 92.84467734 4.26655194 99.36263955 -7.46875 102.59765625 C-19.75561234 105.01615991 -33.30108641 104.34722227 -44.1953125 97.90625 C-49.43779677 94.21057646 -53.5377967 90.08456285 -56.40625 84.34765625 C-56.73625 102.16765625 -57.06625 119.98765625 -57.40625 138.34765625 C-60.04625 138.34765625 -62.68625 138.34765625 -65.40625 138.34765625 C-65.40625 92.14765625 -65.40625 45.94765625 -65.40625 -1.65234375 C-62.76625 -1.65234375 -60.12625 -1.65234375 -57.40625 -1.65234375 C-57.07625 4.94765625 -56.74625 11.54765625 -56.40625 18.34765625 C-54.75625 15.70765625 -53.10625 13.06765625 -51.40625 10.34765625 C-39.52804078 -5.27698081 -17.01338496 -7.71187525 0 0 Z M-48.15625 16.03515625 C-52.01237931 20.62034873 -53.73756226 25.66146436 -55.40625 31.34765625 C-55.76332031 32.38792969 -56.12039063 33.42820312 -56.48828125 34.5 C-60.01839695 49.29644242 -58.67546897 68.24521652 -50.65625 81.34765625 C-44.75007886 89.16854622 -38.11629495 94.29126828 -28.40625 96.34765625 C-16.76314121 97.56729076 -6.2202677 96.05341373 3.46875 89.22265625 C12.34603303 81.67776832 17.12363092 69.72027554 18.59375 58.34765625 C19.77373097 42.07007526 17.4400674 27.43272228 7.00390625 14.35546875 C0.80722615 7.56099128 -7.25130063 3.76712855 -16.38671875 3.14453125 C-30.01349532 2.9453579 -38.69758399 6.23509465 -48.15625 16.03515625 Z " fill="#F9F9F9" transform="translate(344.40625,332.65234375)"/>
<path d="M0 0 C7.83594444 6.12464623 13.28084186 15.73247679 14.7265625 25.53125 C14.7265625 28.50125 14.7265625 31.47125 14.7265625 34.53125 C-9.6934375 34.53125 -34.1134375 34.53125 -59.2734375 34.53125 C-59.2734375 23.59992862 -56.51013852 13.9259151 -49.2890625 5.49609375 C-35.10758106 -8.32810231 -17.02452363 -10.99866132 0 0 Z " fill="#333333" transform="translate(504.2734375,342.46875)"/>
<path d="M0 0 C7.83594444 6.12464623 13.28084186 15.73247679 14.7265625 25.53125 C14.7265625 28.50125 14.7265625 31.47125 14.7265625 34.53125 C-9.6934375 34.53125 -34.1134375 34.53125 -59.2734375 34.53125 C-59.2734375 23.59992862 -56.51013852 13.9259151 -49.2890625 5.49609375 C-35.10758106 -8.32810231 -17.02452363 -10.99866132 0 0 Z " fill="#333333" transform="translate(149.2734375,342.46875)"/>
<path d="M0 0 C5.78317967 4.63134305 10.3967317 10.11868854 11.8828125 17.5078125 C12.09019744 20.52903401 12.07163743 23.48661367 11.8828125 26.5078125 C9.2428125 26.5078125 6.6028125 26.5078125 3.8828125 26.5078125 C3.78484375 25.78335938 3.686875 25.05890625 3.5859375 24.3125 C2.48409044 17.18848881 0.90102508 12.71466336 -4.1171875 7.3828125 C-14.39615037 0.9584607 -26.6459258 -0.39389931 -38.37109375 2.23828125 C-45.15447757 4.49940919 -50.09604097 7.4760927 -54.1171875 13.5078125 C-54.83247587 18.5973644 -55.27578174 24.03302113 -53.0546875 28.77734375 C-46.24108524 37.27583135 -35.44162404 38.8429962 -25.3671875 41.0078125 C5.31909402 47.67377485 5.31909402 47.67377485 11.7578125 57.6328125 C15.85561201 64.60721299 15.98377289 72.83130115 14.45703125 80.703125 C11.45032153 88.63493592 5.09921163 93.91477835 -2.296875 97.5 C-16.39760243 102.53876409 -34.43949468 102.97509163 -48.1171875 96.5078125 C-51.12552936 94.79310837 -53.60895109 92.88897967 -56.1171875 90.5078125 C-56.74367188 89.92128906 -57.37015625 89.33476562 -58.015625 88.73046875 C-63.66139566 82.90603447 -67.31715702 75.55866465 -67.3671875 67.3203125 C-67.2846875 66.3921875 -67.2021875 65.4640625 -67.1171875 64.5078125 C-64.4771875 64.5078125 -61.8371875 64.5078125 -59.1171875 64.5078125 C-58.92125 65.34183594 -58.7253125 66.17585938 -58.5234375 67.03515625 C-56.06752779 76.2765751 -52.79687739 82.91154006 -44.55078125 88.1328125 C-33.35207099 94.00754575 -20.86338526 93.93505586 -8.8125 90.48046875 C-2.86646585 88.33472599 2.34793976 85.58773201 5.2578125 79.6640625 C6.95750546 73.8001218 6.7410843 67.82514636 4.6328125 62.1328125 C-5.22293168 52.72505669 -19.88608569 50.44796928 -32.8046875 48.0703125 C-43.3001985 46.01732029 -52.92834806 42.77768042 -60.1171875 34.5078125 C-64.27579679 28.13994202 -63.76210848 20.90697351 -63.1171875 13.5078125 C-61.83957453 8.09184446 -58.81511301 3.40030305 -54.24609375 0.1953125 C-38.58795408 -9.18282463 -15.46915441 -10.45890197 0 0 Z " fill="#F8F8F8" transform="translate(704.1171875,335.4921875)"/>
<path d="M0 0 C5.78317967 4.63134305 10.3967317 10.11868854 11.8828125 17.5078125 C12.09019744 20.52903401 12.07163743 23.48661367 11.8828125 26.5078125 C9.2428125 26.5078125 6.6028125 26.5078125 3.8828125 26.5078125 C3.78484375 25.78335938 3.686875 25.05890625 3.5859375 24.3125 C2.48409044 17.18848881 0.90102508 12.71466336 -4.1171875 7.3828125 C-14.39615037 0.9584607 -26.6459258 -0.39389931 -38.37109375 2.23828125 C-45.15447757 4.49940919 -50.09604097 7.4760927 -54.1171875 13.5078125 C-54.83247587 18.5973644 -55.27578174 24.03302113 -53.0546875 28.77734375 C-46.24108524 37.27583135 -35.44162404 38.8429962 -25.3671875 41.0078125 C5.31909402 47.67377485 5.31909402 47.67377485 11.7578125 57.6328125 C15.85561201 64.60721299 15.98377289 72.83130115 14.45703125 80.703125 C11.45032153 88.63493592 5.09921163 93.91477835 -2.296875 97.5 C-16.39760243 102.53876409 -34.43949468 102.97509163 -48.1171875 96.5078125 C-51.12552936 94.79310837 -53.60895109 92.88897967 -56.1171875 90.5078125 C-56.74367188 89.92128906 -57.37015625 89.33476562 -58.015625 88.73046875 C-63.66139566 82.90603447 -67.31715702 75.55866465 -67.3671875 67.3203125 C-67.2846875 66.3921875 -67.2021875 65.4640625 -67.1171875 64.5078125 C-64.4771875 64.5078125 -61.8371875 64.5078125 -59.1171875 64.5078125 C-58.92125 65.34183594 -58.7253125 66.17585938 -58.5234375 67.03515625 C-56.06752779 76.2765751 -52.79687739 82.91154006 -44.55078125 88.1328125 C-33.35207099 94.00754575 -20.86338526 93.93505586 -8.8125 90.48046875 C-2.86646585 88.33472599 2.34793976 85.58773201 5.2578125 79.6640625 C6.95750546 73.8001218 6.7410843 67.82514636 4.6328125 62.1328125 C-5.22293168 52.72505669 -19.88608569 50.44796928 -32.8046875 48.0703125 C-43.3001985 46.01732029 -52.92834806 42.77768042 -60.1171875 34.5078125 C-64.27579679 28.13994202 -63.76210848 20.90697351 -63.1171875 13.5078125 C-61.83957453 8.09184446 -58.81511301 3.40030305 -54.24609375 0.1953125 C-38.58795408 -9.18282463 -15.46915441 -10.45890197 0 0 Z " fill="#F8F8F8" transform="translate(608.1171875,335.4921875)"/>
<path d="M0 0 C3.81233736 -0.59007744 7.20048297 -0.74577036 11 0 C14.38834067 2.58754225 16.52735722 5.84849797 18.875 9.375 C19.544104 10.31714355 20.21320801 11.25928711 20.90258789 12.22998047 C22.28155612 14.17624059 23.6458831 16.13295451 24.99560547 18.09960938 C26.91001601 20.86979174 28.87765858 23.58897353 30.87890625 26.296875 C35.47974256 32.53444065 35.47974256 32.53444065 37.62109375 35.5078125 C38.0586499 36.11254395 38.49620605 36.71727539 38.94702148 37.34033203 C40 39 40 39 41 42 C45.27012306 37.94457587 48.84714498 33.53557647 52.4375 28.875 C53.04368164 28.1010791 53.64986328 27.3271582 54.27441406 26.52978516 C57.55670755 22.30715436 60.69236963 18.03328399 63.67578125 13.59375 C64.27527588 12.72121582 64.87477051 11.84868164 65.49243164 10.94970703 C66.64128979 9.26671522 67.76305973 7.56482345 68.85327148 5.84326172 C72.71004565 0.2508509 72.71004565 0.2508509 76.64648438 -0.51464844 C79.1561316 -0.52259595 81.52055453 -0.37433791 84 0 C82.08834966 4.01294422 79.55830074 7.4133937 76.875 10.9375 C76.35800537 11.62191162 75.84101074 12.30632324 75.30834961 13.01147461 C72.15855007 17.17531086 68.99044277 21.32521023 65.82421875 25.4765625 C65.1173291 26.403479 64.41043945 27.33039551 63.68212891 28.28540039 C62.29652628 30.100792 60.90953942 31.91512815 59.52099609 33.72827148 C58.24995993 35.39096967 56.98496133 37.05830667 55.72705078 38.73095703 C54.62785629 40.17510654 53.50347391 41.60067188 52.34716797 42.99951172 C50.71348702 44.96099466 50.71348702 44.96099466 49 48 C49.60819728 52.97761462 54.17544572 57.29665455 57.25 61.125 C64.1830207 69.89076377 70.82597452 78.84323725 77.42529297 87.86132812 C80.41497794 91.92173748 83.46795747 95.93430054 86.5234375 99.9453125 C88 102 88 102 88 103 C78.69669699 104.25476661 78.69669699 104.25476661 75.00537109 101.52490234 C73.20955367 99.33367558 71.69080944 97.08898102 70.1875 94.6875 C69.00504096 92.94324064 67.82141196 91.19977394 66.63671875 89.45703125 C65.74412354 88.10472412 65.74412354 88.10472412 64.83349609 86.72509766 C61.87519585 82.32822052 58.67980252 78.11289382 55.5 73.875 C51.14687035 68.03200255 46.98962706 62.09765974 43 56 C38.86469538 59.7704248 35.76834958 64.24166873 32.5 68.75 C31.25058495 70.46006295 30.00057447 72.16969101 28.75 73.87890625 C27.81027344 75.16498779 27.81027344 75.16498779 26.8515625 76.47705078 C24.09439554 80.23398161 21.30090732 83.96311811 18.5 87.6875 C18.03271484 88.30915039 17.56542969 88.93080078 17.08398438 89.57128906 C16.18491097 90.76683803 15.28152512 91.95915801 14.37353516 93.14794922 C13.38619262 94.47926463 12.43685478 95.83907713 11.51318359 97.21533203 C7.66089002 102.8138338 7.66089002 102.8138338 4.2265625 103.78125 C3.36804688 103.6884375 2.50953125 103.595625 1.625 103.5 C0.75101563 103.4278125 -0.12296875 103.355625 -1.0234375 103.28125 C-1.67570313 103.1884375 -2.32796875 103.095625 -3 103 C-0.02437004 97.45516759 3.45350768 92.66045201 7.375 87.75 C13.10661441 80.48398544 18.66554056 73.11229054 24.11669922 65.63378906 C27.97968751 60.34345148 31.95186337 55.15003228 36 50 C34.68227683 47.19403842 33.20727748 44.7982135 31.3125 42.34765625 C30.78374268 41.66026367 30.25498535 40.97287109 29.71020508 40.26464844 C29.1458374 39.53793945 28.58146973 38.81123047 28 38.0625 C27.12541138 36.92796387 27.12541138 36.92796387 26.2331543 35.77050781 C25.0479344 34.23346884 23.86133815 32.69749016 22.67333984 31.16259766 C21.20183234 29.26084489 19.73422093 27.35622386 18.26953125 25.44921875 C17.85695068 24.91208252 17.44437012 24.37494629 17.01928711 23.8215332 C16.62104736 23.30292725 16.22280762 22.78432129 15.8125 22.25 C13.28595833 18.96135396 10.75181543 15.67943789 8.1953125 12.4140625 C7.73406982 11.82206055 7.27282715 11.23005859 6.79760742 10.62011719 C5.91315166 9.48529583 5.02546078 8.3529859 4.1340332 7.22363281 C2.25473835 4.80657757 0.97767702 2.93303105 0 0 Z " fill="#F8F8F8" transform="translate(179,331)"/>
<path d="M0 0 C2.64 0 5.28 0 8 0 C8.33 6.6 8.66 13.2 9 20 C10.32 18.02 11.64 16.04 13 14 C19.57882058 5.86648301 28.64388303 1.24057651 39 0 C42.02342267 -0.1336574 44.97092635 -0.09616107 48 0 C48 2.64 48 5.28 48 8 C47.20078125 8.00257813 46.4015625 8.00515625 45.578125 8.0078125 C35.30588308 8.36951116 26.87836354 11.18777999 19.125 18.125 C12.09640967 25.84266781 8.93613924 35.19677232 8.79467773 45.44262695 C8.77473251 46.72357742 8.75478729 48.00452789 8.73423767 49.32429504 C8.71725722 50.71228924 8.70037827 52.10028467 8.68359375 53.48828125 C8.66300576 54.91603675 8.64200882 56.34378641 8.62062073 57.77153015 C8.56559047 61.51806895 8.51609773 65.26466101 8.46777344 69.0112915 C8.41741879 72.83895574 8.36180582 76.66654323 8.30664062 80.49414062 C8.19929224 87.99602863 8.09779613 95.49798074 8 103 C5.36 103 2.72 103 0 103 C0 69.01 0 35.02 0 0 Z " fill="#FCFCFC" transform="translate(388,331)"/>
</svg>
