<?xml version="1.0" encoding="UTF-8"?>
<svg version="1.1" xmlns="http://www.w3.org/2000/svg" width="1000" height="1000">
<path d="M0 0 C4.03343723 0.02848688 8.06522322 0.011536 12.0986042 -0.01723194 C32.71457382 -0.14128952 52.11691635 1.43152717 72.34130859 5.65185547 C73.23523315 5.83648849 74.12915771 6.02112152 75.0501709 6.21134949 C95.54150813 10.49875236 115.18396915 17.29836443 134.34130859 25.65185547 C135.47181641 26.13267578 136.60232422 26.61349609 137.76708984 27.10888672 C153.64996971 33.96543049 168.80677652 41.88007623 183.30224609 51.33935547 C185.29318849 52.67282008 185.29318849 52.67282008 187.34130859 53.65185547 C187.34130859 54.31185547 187.34130859 54.97185547 187.34130859 55.65185547 C188.03998047 55.88775391 188.73865234 56.12365234 189.45849609 56.36669922 C192.85086573 57.87901576 195.57966783 59.92155036 198.46630859 62.21435547 C199.31672729 62.87927002 199.31672729 62.87927002 200.18432617 63.55761719 C204.73715188 67.13242849 209.2264081 70.78457389 213.68505859 74.47607422 C217.24891461 77.39529157 220.89021769 80.21283526 224.54052734 83.02294922 C225.13478516 83.56048828 225.72904297 84.09802734 226.34130859 84.65185547 C226.34130859 85.31185547 226.34130859 85.97185547 226.34130859 86.65185547 C226.89818359 86.87873047 227.45505859 87.10560547 228.02880859 87.33935547 C230.99384306 89.02221287 232.99484549 91.18806921 235.34130859 93.65185547 C236.10443359 94.37373047 236.86755859 95.09560547 237.65380859 95.83935547 C239.34130859 97.65185547 239.34130859 97.65185547 239.34130859 99.65185547 C239.93298828 99.90708984 240.52466797 100.16232422 241.13427734 100.42529297 C243.56723318 101.77741356 244.87625916 103.14719004 246.65380859 105.27685547 C247.25580078 105.98970703 247.85779297 106.70255859 248.47802734 107.43701172 C249.09291016 108.16791016 249.70779297 108.89880859 250.34130859 109.65185547 C251.54785609 111.00761353 252.75614723 112.36182218 253.96630859 113.71435547 C256.15916647 116.21205009 258.18231334 118.74375146 260.09130859 121.46435547 C262.06467143 124.4625327 262.06467143 124.4625327 263.73583984 126.01904297 C269.77485017 132.16090748 283.34130859 147.74034967 283.34130859 156.65185547 C284.00130859 156.65185547 284.66130859 156.65185547 285.34130859 156.65185547 C288.78617282 162.79309969 292.13205328 168.97931018 295.40380859 175.21435547 C296.03512695 176.4122168 296.03512695 176.4122168 296.67919922 177.63427734 C297.90695658 179.96987158 299.12616352 182.30967786 300.34130859 184.65185547 C300.70135986 185.34061768 301.06141113 186.02937988 301.43237305 186.73901367 C303.76981114 191.29209615 305.67179132 195.90112148 307.40380859 200.71435547 C308.83125907 204.64079087 310.26669112 208.5407083 311.93896484 212.37060547 C313.04265571 214.95305763 313.95544813 217.39669994 314.71630859 220.08935547 C315.76551568 223.73425716 316.89449965 227.34038338 318.08032227 230.94311523 C321.2508194 240.70775958 323.60399271 250.60360243 325.7099762 260.64672852 C326.10081161 262.50709565 326.4974727 264.36626208 326.90342712 266.22338867 C330.75771228 284.21071711 330.99598602 301.98214379 330.91772461 320.28515625 C330.90401874 323.60262656 330.91083967 326.91894345 330.93823242 330.23632812 C331.1367408 354.35692966 330.49460476 378.30320075 322.98365784 401.48989868 C322.32641953 403.70196763 321.90191272 405.87611471 321.52880859 408.15185547 C320.16479822 415.44584316 317.52808959 422.40734965 315.11010742 429.40478516 C314.31908021 431.71682533 313.55590622 434.03696382 312.79443359 436.35888672 C311.67309455 439.73093689 310.43118855 443.00945475 309.02880859 446.27685547 C307.57949636 449.68186613 306.15950914 453.09082506 304.82568359 456.54248047 C304.43956909 457.53513916 304.43956909 457.53513916 304.0456543 458.54785156 C303.31543802 460.43232566 302.59186789 462.31937109 301.86865234 464.20654297 C300.33574271 467.66441073 298.45697707 470.52730686 296.34130859 473.65185547 C295.65126051 475.30897824 294.98280493 476.97533983 294.34130859 478.65185547 C293.41616087 480.29597513 292.45646943 481.92105059 291.46630859 483.52685547 C288.40551743 488.54212774 285.47612913 493.62044986 282.61083984 498.74951172 C281.98564453 499.85166016 281.36044922 500.95380859 280.71630859 502.08935547 C280.12591797 503.13994141 279.53552734 504.19052734 278.92724609 505.27294922 C278.40388672 506.05798828 277.88052734 506.84302734 277.34130859 507.65185547 C276.68130859 507.65185547 276.02130859 507.65185547 275.34130859 507.65185547 C275.10798828 508.34794922 274.87466797 509.04404297 274.63427734 509.76123047 C273.09304687 513.20688169 270.98898089 515.97244969 268.65380859 518.90185547 C268.20972656 519.46888184 267.76564453 520.0359082 267.30810547 520.62011719 C265.99062277 522.30119089 264.6661624 523.97658928 263.34130859 525.65185547 C262.00631731 527.3588935 260.67272926 529.06703104 259.34130859 530.77685547 C258.53693359 531.80166016 258.53693359 531.80166016 257.71630859 532.84716797 C256.53016149 534.40398604 255.42696719 536.02336757 254.34130859 537.65185547 C253.68130859 537.65185547 253.02130859 537.65185547 252.34130859 537.65185547 C251.68130859 539.30185547 251.02130859 540.95185547 250.34130859 542.65185547 C249.68130859 542.65185547 249.02130859 542.65185547 248.34130859 542.65185547 C248.09380859 543.22935547 247.84630859 543.80685547 247.59130859 544.40185547 C246.15830871 546.98125526 244.55706183 548.71307139 242.34130859 550.65185547 C241.68130859 550.65185547 241.02130859 550.65185547 240.34130859 550.65185547 C240.09380859 551.39435547 239.84630859 552.13685547 239.59130859 552.90185547 C238.22839496 555.90026546 236.84035682 557.53145092 234.34130859 559.65185547 C233.35130859 559.98185547 232.36130859 560.31185547 231.34130859 560.65185547 C229.52784594 562.51628357 229.52784594 562.51628357 227.77880859 564.71435547 C226.67629671 566.06345066 225.53820171 567.38574444 224.34130859 568.65185547 C223.68130859 568.65185547 223.02130859 568.65185547 222.34130859 568.65185547 C222.34130859 569.31185547 222.34130859 569.97185547 222.34130859 570.65185547 C221.53693359 570.91998047 220.73255859 571.18810547 219.90380859 571.46435547 C218.63537109 572.05216797 218.63537109 572.05216797 217.34130859 572.65185547 C217.01130859 573.64185547 216.68130859 574.63185547 216.34130859 575.65185547 C214.12646484 577.69482422 214.12646484 577.69482422 211.40380859 579.83935547 C210.05996094 580.9125 210.05996094 580.9125 208.68896484 582.00732422 C206.34130859 583.65185547 206.34130859 583.65185547 204.34130859 583.65185547 C204.34130859 584.31185547 204.34130859 584.97185547 204.34130859 585.65185547 C203.35130859 585.98185547 202.36130859 586.31185547 201.34130859 586.65185547 C200.32728544 587.63763285 199.32915926 588.63985198 198.34130859 589.65185547 C196.84474143 590.74827099 195.32205347 591.80967808 193.77880859 592.83935547 C192.99376953 593.36916016 192.20873047 593.89896484 191.39990234 594.44482422 C189.34130859 595.65185547 189.34130859 595.65185547 187.34130859 595.65185547 C187.01130859 596.64185547 186.68130859 597.63185547 186.34130859 598.65185547 C184.5847168 599.6418457 184.5847168 599.6418457 182.32958984 600.52294922 C177.46993738 602.54628106 173.03858816 605.01172926 168.52880859 607.71435547 C167.79210937 608.148125 167.05541016 608.58189453 166.29638672 609.02880859 C163.53915631 610.66521363 160.84659666 612.26369356 158.30224609 614.21826172 C155.33946807 616.38427673 152.06341458 617.91596106 148.77880859 619.52685547 C148.06571533 619.8790918 147.35262207 620.23132813 146.61791992 620.59423828 C137.34888778 625.15096423 128.08874036 629.22603396 118.34130859 632.65185547 C116.66681641 633.27253906 116.66681641 633.27253906 114.95849609 633.90576172 C107.48953523 636.65532423 100.08504711 638.84309903 92.34130859 640.65185547 C89.58910355 641.33059476 86.8403169 642.0227991 84.09130859 642.71435547 C82.79449039 643.0388013 81.49761671 643.36302551 80.20068359 643.68701172 C77.62677544 644.33048876 75.05762478 644.99330233 72.49365234 645.67529297 C67.76358402 646.85752212 62.9774932 647.5345073 58.15380859 648.21435547 C56.41015944 648.46454795 54.66666431 648.71581671 52.92333984 648.96826172 C51.78215698 649.12983765 51.78215698 649.12983765 50.61791992 649.29467773 C48.34352117 649.62344921 48.34352117 649.62344921 46.14077759 650.16212463 C42.81529531 650.74387468 39.64999739 650.80994434 36.27319336 650.84472656 C35.57938065 650.85290405 34.88556793 650.86108154 34.17073059 650.86950684 C31.87473353 650.89428925 29.57879957 650.91088817 27.28271484 650.92529297 C26.08804753 650.93327848 26.08804753 650.93327848 24.86924553 650.94142532 C20.62662599 650.96816791 16.38403552 650.98751099 12.14135742 651.00195312 C8.69413539 651.01509608 5.24753332 651.04256907 1.80053711 651.08398438 C-22.723088 651.37176571 -46.88711247 650.92499803 -70.48191833 643.29989624 C-72.73731802 642.62844777 -74.96640058 642.1792851 -77.28369141 641.77685547 C-87.45017017 639.85563113 -97.41839429 636.22758509 -107.09228516 632.60888672 C-108.82735553 631.96186656 -110.56994749 631.33472229 -112.31884766 630.72607422 C-122.1008927 627.30587717 -131.52869792 623.09077876 -140.46337891 617.82763672 C-142.80980227 616.52784327 -142.80980227 616.52784327 -146.00244141 615.23779297 C-152.16816454 612.56334469 -157.87808365 609.06097039 -163.65869141 605.65185547 C-164.60325195 605.09812256 -164.60325195 605.09812256 -165.56689453 604.53320312 C-167.39492103 603.45708721 -169.21547692 602.36945225 -171.03369141 601.27685547 C-172.65404297 600.30619141 -172.65404297 600.30619141 -174.30712891 599.31591797 C-175.08314453 598.76677734 -175.85916016 598.21763672 -176.65869141 597.65185547 C-176.65869141 596.99185547 -176.65869141 596.33185547 -176.65869141 595.65185547 C-177.38185547 595.39275391 -178.10501953 595.13365234 -178.85009766 594.86669922 C-188.41990062 590.72732687 -196.98169727 582.36995516 -205.11083984 575.87646484 C-206.58168773 574.71277825 -208.07668406 573.5798074 -209.57275391 572.44873047 C-210.26111328 571.85576172 -210.94947266 571.26279297 -211.65869141 570.65185547 C-211.65869141 569.99185547 -211.65869141 569.33185547 -211.65869141 568.65185547 C-212.25681641 568.38373047 -212.85494141 568.11560547 -213.47119141 567.83935547 C-215.70190586 566.62839619 -216.90831292 565.46955621 -218.65869141 563.65185547 C-219.56619141 562.92998047 -220.47369141 562.20810547 -221.40869141 561.46435547 C-225.76058845 557.87404041 -230.21348778 553.57918399 -232.72900391 548.48388672 C-233.9290256 546.11913809 -235.24699253 545.61653502 -237.65869141 544.65185547 C-237.65869141 543.99185547 -237.65869141 543.33185547 -237.65869141 542.65185547 C-238.31869141 542.65185547 -238.97869141 542.65185547 -239.65869141 542.65185547 C-239.92681641 541.84748047 -240.19494141 541.04310547 -240.47119141 540.21435547 C-240.86306641 539.36873047 -241.25494141 538.52310547 -241.65869141 537.65185547 C-242.64869141 537.32185547 -243.63869141 536.99185547 -244.65869141 536.65185547 C-246.70166016 534.43701172 -246.70166016 534.43701172 -248.84619141 531.71435547 C-249.91933594 530.37050781 -249.91933594 530.37050781 -251.01416016 528.99951172 C-252.65869141 526.65185547 -252.65869141 526.65185547 -252.65869141 524.65185547 C-253.31869141 524.65185547 -253.97869141 524.65185547 -254.65869141 524.65185547 C-255.15369141 523.16685547 -255.15369141 523.16685547 -255.65869141 521.65185547 C-256.23619141 521.09498047 -256.81369141 520.53810547 -257.40869141 519.96435547 C-260.4562746 516.83211718 -264.65869141 512.21374278 -264.65869141 507.65185547 C-265.31869141 507.65185547 -265.97869141 507.65185547 -266.65869141 507.65185547 C-270.88859163 502.49188682 -273.97584583 496.38594272 -277.09619141 490.51904297 C-278.68080972 487.61126837 -280.37794809 484.7948545 -282.09619141 481.96435547 C-285.94577996 475.41835907 -288.86081076 468.57755858 -291.81787109 461.60058594 C-293.09934197 458.63057997 -294.47328772 455.7054867 -295.84619141 452.77685547 C-299.34350227 445.23345358 -302.45258783 437.73084322 -304.74462891 429.73388672 C-305.48517961 427.23690165 -306.26464749 424.76399275 -307.07275391 422.28857422 C-307.33266113 421.48669678 -307.59256836 420.68481934 -307.86035156 419.85864258 C-308.37303452 418.28092742 -308.8905308 416.70476373 -309.4140625 415.13061523 C-311.69010878 408.07934924 -313.15339578 400.90032804 -314.65869141 393.65185547 C-315.00537872 392.00488678 -315.00537872 392.00488678 -315.35906982 390.324646 C-319.47972664 370.17336596 -320.45248771 350.65376174 -320.31054688 330.13867188 C-320.28206006 325.98417545 -320.29901759 321.8312817 -320.32776356 317.67683983 C-320.49005421 289.93830091 -317.46161833 263.92299045 -309.43359375 237.23095703 C-308.63151235 234.56139561 -307.85624302 231.88501197 -307.08447266 229.20654297 C-306.56885422 227.43793176 -306.05197482 225.66968756 -305.53369141 223.90185547 C-305.30431885 223.11601074 -305.07494629 222.33016602 -304.83862305 221.52050781 C-303.1066823 215.75229054 -300.96943681 210.21108645 -298.65869141 204.65185547 C-298.31225586 203.81090332 -297.96582031 202.96995117 -297.60888672 202.10351562 C-293.13094259 191.30340519 -288.48421895 180.80081265 -282.65869141 170.65185547 C-282.02189453 169.51619141 -281.38509766 168.38052734 -280.72900391 167.21044922 C-278.73888785 163.67122254 -276.71043621 160.15567821 -274.65869141 156.65185547 C-274.29533691 156.03084961 -273.93198242 155.40984375 -273.55761719 154.77001953 C-272.47597857 152.9329884 -271.38238547 151.10372736 -270.28369141 149.27685547 C-269.63658203 148.19662109 -268.98947266 147.11638672 -268.32275391 146.00341797 C-267.77361328 145.22740234 -267.22447266 144.45138672 -266.65869141 143.65185547 C-265.99869141 143.65185547 -265.33869141 143.65185547 -264.65869141 143.65185547 C-264.31837891 142.66185547 -264.31837891 142.66185547 -263.97119141 141.65185547 C-259.57869141 131.61185547 -259.57869141 131.61185547 -255.65869141 129.65185547 C-255.23716797 128.94287109 -254.81564453 128.23388672 -254.38134766 127.50341797 C-252.27650115 124.01920493 -249.75945371 121.09258185 -247.09619141 118.02685547 C-243.18082839 113.49446024 -243.18082839 113.49446024 -239.65869141 108.65185547 C-238.99869141 108.65185547 -238.33869141 108.65185547 -237.65869141 108.65185547 C-237.41119141 108.09498047 -237.16369141 107.53810547 -236.90869141 106.96435547 C-234.44963521 102.41510151 -231.31604338 99.31024745 -227.29931641 96.10498047 C-225.37575788 94.4012572 -223.76208164 92.54496574 -222.09619141 90.58935547 C-219.50750415 87.55967502 -216.96830803 84.92130687 -213.65869141 82.65185547 C-212.99869141 82.65185547 -212.33869141 82.65185547 -211.65869141 82.65185547 C-211.16369141 81.16685547 -211.16369141 81.16685547 -210.65869141 79.65185547 C-209.29174805 78.30151367 -209.29174805 78.30151367 -207.56884766 76.95263672 C-206.94945312 76.46601563 -206.33005859 75.97939453 -205.69189453 75.47802734 C-204.71639648 74.72875977 -204.71639648 74.72875977 -203.72119141 73.96435547 C-203.07472656 73.45324219 -202.42826172 72.94212891 -201.76220703 72.41552734 C-196.92320033 68.65185547 -196.92320033 68.65185547 -194.65869141 68.65185547 C-194.16369141 67.16685547 -194.16369141 67.16685547 -193.65869141 65.65185547 C-192.66869141 65.32185547 -191.67869141 64.99185547 -190.65869141 64.65185547 C-190.10181641 64.07435547 -189.54494141 63.49685547 -188.97119141 62.90185547 C-185.83895312 59.85427227 -181.22057872 55.65185547 -176.65869141 55.65185547 C-176.65869141 54.99185547 -176.65869141 54.33185547 -176.65869141 53.65185547 C-170.66861964 48.74147565 -163.46209477 45.27654178 -156.65869141 41.65185547 C-154.92915062 40.69419749 -153.19998722 39.73585764 -151.47119141 38.77685547 C-134.45906758 29.51954592 -117.02927566 21.79635876 -98.65869141 15.65185547 C-97.33345459 15.2080957 -97.33345459 15.2080957 -95.98144531 14.75537109 C-93.14825391 13.81377047 -90.31076064 12.88653147 -87.47119141 11.96435547 C-86.1727832 11.5361853 -86.1727832 11.5361853 -84.84814453 11.09936523 C-77.55127219 8.76477602 -70.15502201 7.20482977 -62.65869141 5.65185547 C-61.55592361 5.42087662 -60.45315582 5.18989777 -59.31697083 4.95191956 C-39.4449965 0.91134568 -20.22813562 -0.14413628 0 0 Z " fill="#000000" transform="translate(495.65869140625,175.34814453125)"/>
<path d="M0 0 C1.42699219 0.00290039 1.42699219 0.00290039 2.8828125 0.00585938 C3.87539063 0.01810547 4.86796875 0.03035156 5.890625 0.04296875 C7.35628906 0.04393555 7.35628906 0.04393555 8.8515625 0.04492188 C22.96208472 0.13049782 22.96208472 0.13049782 26.953125 3.85546875 C31.22170784 9.40349419 34.98292054 15.35306068 38.81298828 21.20898438 C40.54280725 23.84283893 42.29729866 26.45975511 44.05224609 29.0769043 C47.93087019 34.86366895 51.72740713 40.6927609 55.44921875 46.58203125 C58.21511929 50.91293326 61.08202102 55.17547716 63.94384766 59.44335938 C66.30720732 62.97248886 68.66037843 66.50842217 71.015625 70.04296875 C72.05204583 71.59768125 73.08850405 73.15236883 74.125 74.70703125 C101.140625 115.23046875 101.140625 115.23046875 103.08984375 118.15625 C104.54843963 120.34275468 106.00931957 122.52761282 107.47265625 124.7109375 C111.9171319 131.34934222 116.31198578 138.0158696 120.640625 144.73046875 C123.93512585 149.84062081 127.25458541 154.93049905 130.640625 159.98046875 C135.69889438 167.5255796 140.66765847 175.12903157 145.640625 182.73046875 C152.46537435 193.16059426 159.32734103 203.56329947 166.27050781 213.91503906 C171.78830898 222.14757981 177.2338755 230.4245063 182.640625 238.73046875 C187.9683517 246.91426913 193.33292072 255.07018174 198.76855469 263.18261719 C201.62521139 267.44625356 204.47723898 271.7129724 207.328125 275.98046875 C207.89861572 276.83205566 208.46910645 277.68364258 209.05688477 278.56103516 C211.94787614 282.88895663 214.7940686 287.23914385 217.578125 291.63671875 C221.27971396 297.47900426 225.10567641 303.23352296 228.953125 308.98046875 C230.0052417 310.55526001 230.0052417 310.55526001 231.07861328 312.16186523 C232.46976841 314.24411343 233.86135531 316.32607325 235.25341797 318.40771484 C237.6776932 322.03377826 240.09703672 325.66311116 242.515625 329.29296875 C243.29036195 330.45442884 244.06510149 331.6158872 244.83984375 332.77734375 C246.4706234 335.22316221 248.09749431 337.6715392 249.72265625 340.12109375 C250.59093123 341.42852796 251.45941879 342.73582102 252.328125 344.04296875 C252.74449219 344.66953369 253.16085937 345.29609863 253.58984375 345.94165039 C256.50494666 350.31372453 259.4968105 354.62397226 262.5703125 358.88671875 C264.19791804 361.31598076 265.62574612 363.828082 267.06054688 366.37451172 C268.89078398 369.51950775 270.92167541 372.52553538 272.953125 375.54296875 C273.3860083 376.19233398 273.8188916 376.84169922 274.26489258 377.51074219 C277.40122798 382.19640757 280.66521448 386.77326472 284.05859375 391.27734375 C284.41566406 391.921875 284.77273438 392.56640625 285.140625 393.23046875 C283.71119642 397.51875449 280.50423477 398.66307304 276.765625 400.79296875 C275.40337873 401.58547856 274.04139016 402.37843152 272.6796875 403.171875 C272.07334473 403.51935791 271.46700195 403.86684082 270.84228516 404.22485352 C269.24092303 405.1711965 267.68831139 406.19867782 266.140625 407.23046875 C264.203125 407.171875 264.203125 407.171875 262.140625 406.23046875 C260.203125 404.0703125 260.203125 404.0703125 258.140625 401.16796875 C257.34302715 400.0633836 256.5448187 398.95923917 255.74609375 397.85546875 C255.32376465 397.26507812 254.90143555 396.6746875 254.46630859 396.06640625 C252.17765293 392.89684997 249.80888212 389.7877657 247.453125 386.66796875 C239.11631937 375.56834546 230.90536277 364.37534542 222.70556641 353.17431641 C217.12670812 345.55455711 211.48551258 337.98425349 205.79443359 330.44775391 C199.35671471 321.92081304 193.02132076 313.33030089 186.78173828 304.65722656 C181.77371032 297.70271605 176.64637475 290.84265391 171.46044922 284.02001953 C169.53761716 281.48880524 167.62037702 278.95341133 165.703125 276.41796875 C165.1064502 275.63631348 164.50977539 274.8546582 163.89501953 274.04931641 C158.78182377 267.27808464 154.10761852 260.25051539 149.43197632 253.17538452 C147.35360536 250.04513143 145.24430057 246.9360977 143.1328125 243.828125 C142.71780991 243.21679214 142.30280731 242.60545929 141.87522888 241.9756012 C141.02525547 240.72375823 140.17512065 239.47202484 139.3248291 238.22039795 C132.30053712 227.87913378 125.30992984 217.51731165 118.390625 207.10546875 C113.78856903 200.18232179 109.15488504 193.2908339 104.3984375 186.47265625 C96.59304566 175.26422159 88.93357283 163.95845835 81.37963867 152.5793457 C77.81421047 147.216729 74.16659971 141.91991073 70.484375 136.63671875 C67.11572208 131.77088676 63.86393911 126.82629886 60.59082031 121.89599609 C56.86907635 116.29911149 53.06941005 110.7645556 49.2265625 105.25 C47.12159274 102.20291831 45.06266501 99.12921489 43.015625 96.04296875 C36.97091011 86.88574554 36.97091011 86.88574554 30.44140625 78.07421875 C29.140625 76.23046875 29.140625 76.23046875 29.140625 74.23046875 C28.480625 74.23046875 27.820625 74.23046875 27.140625 74.23046875 C27.14246859 75.17045936 27.14431217 76.11044996 27.14621162 77.07892513 C27.19063624 99.96461461 27.22348866 122.85029849 27.24424934 145.736022 C27.25455623 156.80344107 27.26860538 167.87083164 27.29150391 178.93823242 C27.31145572 188.58602466 27.32434571 198.23379625 27.32880199 207.88160855 C27.33140632 212.98871452 27.33751549 218.09576142 27.35208511 223.20284843 C27.36569729 228.01346555 27.36984028 232.82399947 27.36684036 237.63463402 C27.3673889 239.39660851 27.37134462 241.15858588 27.37903595 242.92054367 C27.45023517 260.07807085 27.45023517 260.07807085 25.140625 267.23046875 C19.3276628 273.04343095 14.14776938 272.47457536 6.328125 272.54296875 C5.23435547 272.57197266 4.14058594 272.60097656 3.01367188 272.63085938 C-5.03658408 272.69463349 -5.03658408 272.69463349 -8.99609375 270.4609375 C-11.91642271 266.96511394 -13.10791493 264.32176916 -13.11943722 259.75699043 C-13.12650281 258.86097716 -13.1335684 257.9649639 -13.1408481 257.04179871 C-13.13843302 256.06146003 -13.13601793 255.08112135 -13.13352966 254.07107544 C-13.13876634 253.02650173 -13.14400302 251.98192802 -13.14939839 250.90570056 C-13.1644386 247.39428933 -13.16510443 243.8830233 -13.16577148 240.37158203 C-13.1733902 237.8585892 -13.1818172 235.34559871 -13.19099426 232.83261108 C-13.2129732 225.99794564 -13.22176422 219.1633307 -13.22682071 212.32863474 C-13.23007781 208.06108418 -13.23660031 203.79354263 -13.2438221 199.52599716 C-13.26338645 187.71001793 -13.27979197 175.89404708 -13.28269863 164.07805061 C-13.2828862 163.32199199 -13.28307377 162.56593336 -13.28326702 161.78696387 C-13.28363327 160.25426094 -13.28399697 158.721558 -13.28435814 157.18885507 C-13.28454095 156.42802215 -13.28472376 155.66718924 -13.28491211 154.88330078 C-13.28509266 154.12153927 -13.28527321 153.35977776 -13.28545923 152.57493256 C-13.28900186 140.22809647 -13.31603046 127.88143467 -13.35341 115.53465904 C-13.39148113 102.85801497 -13.41085601 90.18145742 -13.41115814 77.5047549 C-13.41174294 70.38733086 -13.42024911 63.27011483 -13.44915581 56.15274429 C-13.47621334 49.45992514 -13.47758485 42.76758776 -13.46150017 36.07471085 C-13.45967956 33.61645613 -13.46643116 31.15817811 -13.48231888 28.69997406 C-13.50266815 25.34743298 -13.49229172 21.99635059 -13.47410583 18.64382935 C-13.4873058 17.66795211 -13.50050577 16.69207487 -13.51410574 15.6866256 C-13.45952172 11.28996176 -13.32314099 8.21099076 -10.50845432 4.70463371 C-6.86868462 1.30519203 -4.9182789 -0.0234598 0 0 Z " fill="#FCFCFC" transform="translate(391.859375,379.76953125)"/>
<path d="M0 0 C0.93779297 -0.01611328 1.87558594 -0.03222656 2.84179688 -0.04882812 C9.84590778 -0.05376407 14.11180212 0.83733517 19.31520367 5.83764076 C22.57419443 9.87337031 22.37197485 13.75307964 22.28877258 18.76571655 C22.29304471 19.71006014 22.29731683 20.65440374 22.30171841 21.6273638 C22.309946 24.78770485 22.28246642 27.94671508 22.25512695 31.10693359 C22.25371644 33.37379932 22.25450853 35.64066734 22.25733948 37.90753174 C22.25877488 44.06007276 22.22936423 50.21212704 22.19446969 56.36455488 C22.16322732 62.79473883 22.1602771 69.22493375 22.15434265 75.65518188 C22.1405645 86.44746332 22.10932711 97.23954503 22.06469727 108.03173828 C22.01878213 119.14631255 21.98339984 130.26083829 21.9621582 141.37548828 C21.96084459 142.06092092 21.95953097 142.74635357 21.95817754 143.45255689 C21.95165222 146.89126917 21.94533371 150.32998179 21.93911803 153.76869464 C21.88730845 182.28341936 21.79889132 210.7979501 21.6875 239.3125 C21.0275 239.3125 20.3675 239.3125 19.6875 239.3125 C18.56176758 237.81884766 18.56176758 237.81884766 17.33203125 235.7265625 C16.87795898 234.96545166 16.42388672 234.20434082 15.95605469 233.42016602 C15.23530762 232.19124634 15.23530762 232.19124634 14.5 230.9375 C10.95268087 225.00238446 7.34084425 219.21107071 3.296875 213.59765625 C0.87973206 210.16554795 -1.31741224 206.60019019 -3.55078125 203.046875 C-5.29997216 200.33194454 -7.12939002 197.6949149 -9 195.0625 C-10.99673704 192.24830685 -12.8774237 189.44885308 -14.5625 186.4375 C-16.10686179 183.41182995 -16.10686179 183.41182995 -17.89680386 181.54767323 C-19.86933837 178.4333352 -19.6987596 176.09698399 -19.71363831 172.42472839 C-19.72043498 171.73204575 -19.72723164 171.03936311 -19.73423427 170.32569009 C-19.75322236 168.00497863 -19.7507685 165.68479421 -19.74829102 163.36401367 C-19.75726766 161.69991883 -19.76747568 160.03583024 -19.77882385 158.37174988 C-19.80533984 153.85096639 -19.81235804 149.33035323 -19.81427121 144.8094995 C-19.81711999 141.03472669 -19.82815676 137.25999354 -19.8387875 133.48523599 C-19.86322032 124.57794613 -19.87054036 115.67074725 -19.8684082 106.76342773 C-19.86660637 97.57810062 -19.89825102 88.39330237 -19.94563919 79.20810908 C-19.98488345 71.32006094 -20.00095913 63.43218551 -19.99904197 55.5440405 C-19.99827743 50.83372337 -20.0068069 46.12387605 -20.03857613 41.41365623 C-20.06765042 36.98191762 -20.06783767 32.55109687 -20.04602623 28.11932564 C-20.04289224 26.49517856 -20.049957 24.87097404 -20.0681076 23.24692535 C-20.2122482 9.45348245 -20.2122482 9.45348245 -16.45445251 4.91645813 C-11.11871344 -0.04227724 -6.98792619 -0.02372005 0 0 Z " fill="#FAFAFA" transform="translate(598.3125,370.6875)"/>
<path d="M0 0 C1.82421875 0.2265625 1.82421875 0.2265625 4 1 C5.51953125 2.9609375 5.51953125 2.9609375 6.8125 5.375 C7.25207031 6.16648437 7.69164062 6.95796875 8.14453125 7.7734375 C9 10 9 10 8 13 C7.59007812 12.28972656 7.18015625 11.57945312 6.7578125 10.84765625 C6.21898437 9.92855469 5.68015625 9.00945312 5.125 8.0625 C4.32449219 6.68771484 4.32449219 6.68771484 3.5078125 5.28515625 C2.20287437 2.89299704 2.20287437 2.89299704 0 2 C0 1.34 0 0.68 0 0 Z " fill="#0B0B0B" transform="translate(770,320)"/>
<path d="M0 0 C3.48191452 1.88211596 6.03178994 3.5009599 8 7 C7.67 7.99 7.34 8.98 7 10 C2 4.25 2 4.25 2 2 C1.34 2 0.68 2 0 2 C0 1.34 0 0.68 0 0 Z " fill="#0B0B0B" transform="translate(748,290)"/>
<path d="M0 0 C3.26954202 0.56371414 4.82575883 1.49962266 7 4 C6.67 4.66 6.34 5.32 6 6 C5.01 5.67 4.02 5.34 3 5 C2.6278958 3.67696283 2.29369827 2.34262065 2 1 C1.34 0.67 0.68 0.34 0 0 Z " fill="#0C0C0C" transform="translate(701,245)"/>
</svg>
