<?xml version="1.0" encoding="UTF-8"?>
<svg version="1.1" xmlns="http://www.w3.org/2000/svg" width="200" height="106">
<path d="M0 0 C0.9673407 0.00304138 1.9346814 0.00608276 2.93133545 0.00921631 C17.01794774 0.07472731 30.62668231 0.52213704 44.25 4.4375 C45.41692383 4.75895996 45.41692383 4.75895996 46.60742188 5.08691406 C66.39450483 10.67184668 86.67948894 19.85376898 97.625 38.1875 C101.3465956 45.6306912 101.5587627 55.05265104 99.6015625 63.10546875 C93.23019229 78.48933272 78.94642719 87.95685179 64.25 94.4375 C24.83659298 110.70765697 -24.33659298 110.70765697 -63.75 94.4375 C-78.38937842 87.98200845 -92.85601227 78.49119911 -99.08984375 63.08203125 C-101.11877235 54.95431136 -100.95731934 45.53547472 -97.31640625 37.8984375 C-84.23994169 17.35436599 -60.56023889 8.12288573 -37.70741272 2.97761536 C-25.14062304 0.40180655 -12.79700914 -0.08544344 0 0 Z " fill="#627DBE" transform="translate(99.75,0.5625)"/>
<path d="M0 0 C0.9673407 0.00304138 1.9346814 0.00608276 2.93133545 0.00921631 C17.01794774 0.07472731 30.62668231 0.52213704 44.25 4.4375 C45.41692383 4.75895996 45.41692383 4.75895996 46.60742188 5.08691406 C66.39450483 10.67184668 86.67948894 19.85376898 97.625 38.1875 C101.3465956 45.6306912 101.5587627 55.05265104 99.6015625 63.10546875 C93.23019229 78.48933272 78.94642719 87.95685179 64.25 94.4375 C24.83659298 110.70765697 -24.33659298 110.70765697 -63.75 94.4375 C-78.38937842 87.98200845 -92.85601227 78.49119911 -99.08984375 63.08203125 C-101.11877235 54.95431136 -100.95731934 45.53547472 -97.31640625 37.8984375 C-84.23994169 17.35436599 -60.56023889 8.12288573 -37.70741272 2.97761536 C-25.14062304 0.40180655 -12.79700914 -0.08544344 0 0 Z M-85.9453125 30.49609375 C-91.93747411 36.69831269 -95.7524031 43.80835038 -96.1875 52.5625 C-94.8263356 64.6185275 -88.70161567 72.4053447 -79.69140625 80.20703125 C-50.97909768 101.97957865 -8.80477728 104.32237336 25.58862305 99.77954102 C49.01296436 96.430502 74.64942874 89.25480388 90.1328125 70.109375 C94.78271672 63.50516321 97.40607343 56.63376417 96.25 48.4375 C93.09802714 36.28844005 84.83915938 27.66989227 74.25 21.4375 C29.77342984 -4.15484836 -46.53160025 -6.46302788 -85.9453125 30.49609375 Z " fill="#5A709C" transform="translate(99.75,0.5625)"/>
<path d="M0 0 C4.49977884 -0.11690073 8.99916287 -0.18748837 13.5 -0.25 C15.40265625 -0.30027344 15.40265625 -0.30027344 17.34375 -0.3515625 C24.74138678 -0.42862122 29.76634264 -0.11331477 36 4 C39.44983278 7.5360786 40.29811215 10.44356445 40.5625 15.25 C40.27024102 22.17936623 38.04718014 27.92094559 33.1328125 32.88671875 C26.54153695 38.18282148 19.8124449 39.32124755 11.5625 39.125 C10.46518555 39.11146484 10.46518555 39.11146484 9.34570312 39.09765625 C7.56365702 39.07436153 5.78178241 39.0385019 4 39 C3.93941406 39.59167969 3.87882813 40.18335938 3.81640625 40.79296875 C3.73261719 41.58316406 3.64882812 42.37335938 3.5625 43.1875 C3.48128906 43.96480469 3.40007812 44.74210937 3.31640625 45.54296875 C2.99402379 48.04640786 2.49501895 50.52490524 2 53 C-1.96 53 -5.92 53 -10 53 C-8.64861373 43.70921937 -6.95233501 34.55677356 -5 25.375 C-3.21661997 16.93484499 -1.4844467 8.49845738 0 0 Z " fill="#0E0F13" transform="translate(130,30)"/>
<path d="M0 0 C4.52071021 -0.08751499 9.0412007 -0.1405661 13.5625 -0.1875 C15.47772461 -0.22520508 15.47772461 -0.22520508 17.43164062 -0.26367188 C25.88492042 -0.32954159 31.28977981 -0.07869335 37.9375 5.4375 C41.38061027 9.99422349 40.61894166 15.60738182 40 21 C38.93515254 27.5235918 35.38112687 31.03311048 30.546875 35.3359375 C24.7237253 39.14063347 18.76875998 39.2744111 12.0625 39.125 C11.28326172 39.11597656 10.50402344 39.10695312 9.70117188 39.09765625 C7.80064553 39.07433691 5.90027992 39.03847586 4 39 C3.93941406 39.75925781 3.87882812 40.51851562 3.81640625 41.30078125 C3.73261719 42.29464844 3.64882813 43.28851563 3.5625 44.3125 C3.48128906 45.29863281 3.40007813 46.28476563 3.31640625 47.30078125 C3 50 3 50 2 53 C-1.63 53 -5.26 53 -9 53 C-8.30433623 43.44428511 -6.38081162 34.18931355 -4.5 24.8125 C-4.01611945 22.38415438 -3.53361877 19.95554826 -3.05310059 17.52653503 C-2.7558789 16.02570571 -2.45661651 14.52527848 -2.15490723 13.02534485 C-1.29375271 8.6960914 -0.58645904 4.375199 0 0 Z " fill="#0E0F13" transform="translate(40,30)"/>
<path d="M0 0 C3.96 0 7.92 0 12 0 C11.34 4.29 10.68 8.58 10 13 C12.165625 13.12375 14.33125 13.2475 16.5625 13.375 C28.24780817 14.23577447 28.24780817 14.23577447 33.4375 17.5625 C37.21656543 23.45784207 34.59880573 31.89368162 33.22265625 38.32226562 C32.98417969 39.39154297 32.74570313 40.46082031 32.5 41.5625 C32.26152344 42.66658203 32.02304688 43.77066406 31.77734375 44.90820312 C31.19313133 47.60726449 30.59771114 50.30389581 30 53 C26.37 53 22.74 53 19 53 C19.56718567 46.57189576 20.408844 40.30025575 21.59765625 33.95703125 C22.15729133 30.3413647 22.15729133 30.3413647 22 24 C17.05 23.67 12.1 23.34 7 23 C6.87753906 24.43085937 6.75507812 25.86171875 6.62890625 27.3359375 C6.07757127 32.84928732 5.07344858 38.20616403 3.9375 43.625 C3.75123047 44.53378906 3.56496094 45.44257812 3.37304688 46.37890625 C2.91983534 48.5868599 2.46056576 50.79356867 2 53 C-1.96 53 -5.92 53 -10 53 C-9.69707031 51.43636719 -9.39414063 49.87273437 -9.08203125 48.26171875 C-5.97569419 32.1887683 -2.96056012 16.10040779 0 0 Z " fill="#0E0E12" transform="translate(88,16)"/>
<path d="M0 0 C1.79244141 0.01740234 1.79244141 0.01740234 3.62109375 0.03515625 C5.41740234 0.04869141 5.41740234 0.04869141 7.25 0.0625 C8.17683594 0.07410156 9.10367188 0.08570313 10.05859375 0.09765625 C10.14192732 4.93100345 10.01120862 9.33458188 9.05859375 14.09765625 C9.82042969 14.06285156 10.58226563 14.02804688 11.3671875 13.9921875 C17.98430494 13.81870502 24.1526451 13.78882667 30.05859375 17.09765625 C33.25125852 20.44606076 33.99327018 22.30070872 34.37109375 26.91015625 C34.29809401 28.30796612 34.19165486 29.70428045 34.05859375 31.09765625 C33.97996094 31.92652344 33.90132813 32.75539062 33.8203125 33.609375 C33.59238749 35.77636357 33.33869476 37.93687705 33.05859375 40.09765625 C33.38859375 40.09765625 33.71859375 40.09765625 34.05859375 40.09765625 C34.41988031 46.53758925 33.06086367 52.2946458 31.55859375 58.53515625 C31.32011719 59.55287109 31.08164063 60.57058594 30.8359375 61.61914062 C30.25038198 64.11360715 29.65543004 66.60586473 29.05859375 69.09765625 C33.01859375 69.09765625 36.97859375 69.09765625 41.05859375 69.09765625 C41.27515625 66.74640625 41.27515625 66.74640625 41.49609375 64.34765625 C41.78918006 61.16557626 42.2020024 58.1785058 43.05859375 55.09765625 C44.10917969 55.06027344 45.15976563 55.02289063 46.2421875 54.984375 C60.94792595 54.58488561 60.94792595 54.58488561 73.05859375 47.09765625 C77.55414334 40.42282362 79.39457751 34.1135588 78.05859375 26.09765625 C76.07141136 21.6463677 73.94615797 19.55867056 69.43725586 17.72216797 C63.98182714 16.28985896 58.22786765 16.50921586 52.62109375 16.41015625 C51.31720703 16.37599609 50.01332031 16.34183594 48.66992188 16.30664062 C45.46623177 16.22449472 42.26280396 16.15523215 39.05859375 16.09765625 C38.87683594 17.70833984 38.87683594 17.70833984 38.69140625 19.3515625 C38.5224376 20.787796 38.35314971 22.22399197 38.18359375 23.66015625 C38.10496094 24.36462891 38.02632813 25.06910156 37.9453125 25.79492188 C37.39225472 30.41082715 36.44663539 34.65942228 35.05859375 39.09765625 C34.72859375 39.09765625 34.39859375 39.09765625 34.05859375 39.09765625 C33.89790631 33.77401143 34.46336818 28.9391212 35.49609375 23.72265625 C35.6981543 22.63791016 35.6981543 22.63791016 35.90429688 21.53125 C36.92317708 16.23307292 36.92317708 16.23307292 38.05859375 15.09765625 C42.38476786 14.85426055 46.7168033 14.86908736 51.04907227 14.85742188 C53.21996193 14.8477724 55.38988196 14.81679067 57.56054688 14.78515625 C58.94921314 14.77862055 60.33788617 14.77337231 61.7265625 14.76953125 C62.98750732 14.76018555 64.24845215 14.75083984 65.54760742 14.74121094 C70.015985 15.19485333 73.40143772 16.55071488 76.703125 19.6328125 C81.11289105 25.39942964 81.76288028 28.90387238 81.05859375 36.09765625 C79.3274542 43.13692851 76.02620224 48.8607666 70.05859375 53.09765625 C64.51981504 56.00482617 59.82337605 56.6102329 53.62109375 56.78515625 C52.79416016 56.81931641 51.96722656 56.85347656 51.11523438 56.88867188 C49.09680431 56.97034246 47.07772491 57.03569349 45.05859375 57.09765625 C44.06859375 61.38765625 43.07859375 65.67765625 42.05859375 70.09765625 C37.43859375 70.09765625 32.81859375 70.09765625 28.05859375 70.09765625 C28.31901042 66.77734375 28.57942708 63.45703125 28.83984375 60.13671875 C28.96054829 58.45978782 29.05859375 56.77892569 29.05859375 55.09765625 C28.72859375 55.42765625 28.39859375 55.75765625 28.05859375 56.09765625 C25.7054582 56.17037366 23.35025707 56.18136493 20.99609375 56.16015625 C19.06056641 56.14662109 19.06056641 56.14662109 17.0859375 56.1328125 C16.08691406 56.12121094 15.08789062 56.10960937 14.05859375 56.09765625 C14.85762997 46.34941438 16.48383392 36.74429825 18.05859375 27.09765625 C14.09859375 26.76765625 10.13859375 26.43765625 6.05859375 26.09765625 C5.79304688 27.76054688 5.5275 29.4234375 5.25390625 31.13671875 C4.89739565 33.33207353 4.54061039 35.52738371 4.18359375 37.72265625 C4.00957031 38.81707031 3.83554688 39.91148438 3.65625 41.0390625 C3.48222656 42.10253906 3.30820313 43.16601562 3.12890625 44.26171875 C2.97180176 45.2357666 2.81469727 46.20981445 2.65283203 47.21337891 C2.05859375 50.09765625 2.05859375 50.09765625 0.05859375 56.09765625 C-4.56140625 56.09765625 -9.18140625 56.09765625 -13.94140625 56.09765625 C-13.94140625 53.12765625 -13.94140625 50.15765625 -13.94140625 47.09765625 C-14.46089844 47.57976563 -14.98039062 48.061875 -15.515625 48.55859375 C-16.21300781 49.19023438 -16.91039062 49.821875 -17.62890625 50.47265625 C-18.31339844 51.09914062 -18.99789062 51.725625 -19.703125 52.37109375 C-25.00369972 56.45984423 -29.81990489 56.35468785 -36.25390625 56.22265625 C-37.08986328 56.21363281 -37.92582031 56.20460937 -38.78710938 56.1953125 C-40.83866594 56.17186614 -42.89007402 56.13599891 -44.94140625 56.09765625 C-45.06515625 57.29390625 -45.18890625 58.49015625 -45.31640625 59.72265625 C-45.71521087 63.57776759 -46.64572063 66.21059938 -47.94140625 70.09765625 C-52.56140625 70.09765625 -57.18140625 70.09765625 -61.94140625 70.09765625 C-61.35006861 60.19275081 -59.43868991 50.62664784 -57.50292969 40.91552734 C-56.93741691 38.07763671 -56.38015715 35.23821775 -55.82421875 32.3984375 C-55.46792101 30.58975049 -55.11116682 28.78115332 -54.75390625 26.97265625 C-54.58721436 26.12582275 -54.42052246 25.27898926 -54.2487793 24.40649414 C-54.0919165 23.62137451 -53.93505371 22.83625488 -53.7734375 22.02734375 C-53.56811401 20.99456299 -53.56811401 20.99456299 -53.35864258 19.94091797 C-52.94140625 18.09765625 -52.94140625 18.09765625 -51.94140625 15.09765625 C-47.53069326 14.9731356 -43.12093768 14.88289098 -38.70898438 14.82299805 C-37.21140702 14.79800618 -35.71394974 14.76399998 -34.21679688 14.72045898 C-18.14353186 14.26504981 -18.14353186 14.26504981 -11.94140625 20.09765625 C-10.93237599 21.0885437 -9.92976273 22.08614675 -8.94140625 23.09765625 C-8.28140625 20.78765625 -7.62140625 18.47765625 -6.94140625 16.09765625 C-6.61140625 16.09765625 -6.28140625 16.09765625 -5.94140625 16.09765625 C-5.51024573 23.30812788 -6.93409479 29.94870849 -8.44995117 36.98144531 C-8.88204567 38.98722946 -9.30230906 40.99522395 -9.72070312 43.00390625 C-11.78924162 52.793327 -11.78924162 52.793327 -12.94140625 55.09765625 C-8.98140625 55.09765625 -5.02140625 55.09765625 -0.94140625 55.09765625 C-0.85890625 53.67453125 -0.77640625 52.25140625 -0.69140625 50.78515625 C0.0732641 42.08845765 2.16348788 33.60359656 4.05859375 25.09765625 C6.53783176 25.0708053 9.01678215 25.05089078 11.49609375 25.03515625 C12.20314453 25.02677734 12.91019531 25.01839844 13.63867188 25.00976562 C15.44552934 25.00112037 17.25246978 25.04545614 19.05859375 25.09765625 C19.38859375 25.42765625 19.71859375 25.75765625 20.05859375 26.09765625 C19.99981919 36.00116963 18.20177784 45.47354656 16.05859375 55.09765625 C19.68859375 55.09765625 23.31859375 55.09765625 27.05859375 55.09765625 C27.24035156 53.88142578 27.24035156 53.88142578 27.42578125 52.640625 C28.25122862 47.18632274 29.10903392 41.75883256 30.18359375 36.34765625 C31.52726014 29.24450118 31.52726014 29.24450118 31.05859375 22.09765625 C27.11177614 17.58700755 23.02944273 17.26308502 17.2890625 16.78125 C15.94161855 16.69580234 14.59394988 16.61383493 13.24609375 16.53515625 C12.55322266 16.49197266 11.86035156 16.44878906 11.14648438 16.40429688 C9.45070689 16.29904172 7.75467323 16.19792762 6.05859375 16.09765625 C6.3671156 14.13869225 6.68053555 12.18049912 6.99609375 10.22265625 C7.17011719 9.13210937 7.34414062 8.0415625 7.5234375 6.91796875 C8.05859375 4.09765625 8.05859375 4.09765625 9.05859375 2.09765625 C5.09859375 2.09765625 1.13859375 2.09765625 -2.94140625 2.09765625 C-3.12703125 4.75828125 -3.12703125 4.75828125 -3.31640625 7.47265625 C-3.69140625 12.84765625 -3.69140625 12.84765625 -5.94140625 15.09765625 C-6.14890409 10.0139591 -5.58071759 5.9191602 -3.94140625 1.09765625 C-2.94140625 0.09765625 -2.94140625 0.09765625 0 0 Z M-50.94140625 16.09765625 C-51.1429834 17.1964209 -51.34456055 18.29518555 -51.55224609 19.42724609 C-52.3081208 23.54620808 -53.06504362 27.66497691 -53.82226562 31.78369141 C-54.14839313 33.55837935 -54.47424524 35.33311792 -54.79980469 37.10791016 C-55.2707402 39.67494208 -55.74261792 42.2417989 -56.21484375 44.80859375 C-56.36661072 45.63558777 -56.51837769 46.46258179 -56.67474365 47.31463623 C-57.58744663 52.26339507 -58.54696725 57.19725356 -59.63134766 62.11181641 C-60.06996101 64.58603082 -60.06996101 64.58603082 -59.94140625 69.09765625 C-56.31140625 69.09765625 -52.68140625 69.09765625 -48.94140625 69.09765625 C-48.61140625 67.90140625 -48.28140625 66.70515625 -47.94140625 65.47265625 C-47.75578125 64.79976562 -47.57015625 64.126875 -47.37890625 63.43359375 C-46.85240621 60.62245958 -46.87599781 57.95109937 -46.94140625 55.09765625 C-45.80703125 55.13246094 -44.67265625 55.16726562 -43.50390625 55.203125 C-32.22699888 55.45199985 -24.29625744 55.1976387 -15.640625 47.03515625 C-10.82089408 41.53955502 -10.27177954 35.07026217 -10.4609375 27.9453125 C-11.09695945 24.17571898 -12.46118508 22.1480502 -15.04296875 19.40234375 C-19.57904637 16.28495707 -24.27563868 15.85301618 -29.65234375 15.90234375 C-30.89628906 15.90878906 -32.14023437 15.91523438 -33.421875 15.921875 C-35.34966797 15.94701172 -35.34966797 15.94701172 -37.31640625 15.97265625 C-39.27900391 15.98619141 -39.27900391 15.98619141 -41.28125 16 C-44.50148995 16.0235054 -47.72135332 16.05636538 -50.94140625 16.09765625 Z " fill="#E3E6EC" transform="translate(90.94140625,13.90234375)"/>
<path d="M0 0 C12.66970387 -0.55353075 12.66970387 -0.55353075 18 3 C18.62334158 12.73105464 18.62334158 12.73105464 16.25 17.5625 C13.16444408 20.90518557 11.34824651 21.91858415 6.765625 22.1953125 C5.60546875 22.17210938 4.4453125 22.14890625 3.25 22.125 C2.07953125 22.10695313 0.9090625 22.08890625 -0.296875 22.0703125 C-1.18890625 22.04710938 -2.0809375 22.02390625 -3 22 C-3.16335585 16.76580643 -2.60552037 12.13693808 -1.5 7.0625 C-1.35691406 6.37865234 -1.21382812 5.69480469 -1.06640625 4.99023438 C-0.71716229 3.32550486 -0.35947054 1.66255125 0 0 Z " fill="#647FBE" transform="translate(50,38)"/>
<path d="M0 0 C11.78026802 -0.68622921 11.78026802 -0.68622921 15.75 1.5 C18 4 18 4 18.5625 7.8125 C18.21129853 11.99569973 17.14330068 15.35638884 15 19 C9.74526478 23.17684082 3.37729618 22.27861974 -3 22 C-3.39363688 14.25847464 -1.94210433 7.47941368 0 0 Z " fill="#637EBF" transform="translate(140,38)"/>
<path d="M0 0 C2.17088966 -0.00964947 4.3408097 -0.04063121 6.51147461 -0.07226562 C7.90014087 -0.07880133 9.2888139 -0.08404957 10.67749023 -0.08789062 C11.93843506 -0.09723633 13.19937988 -0.10658203 14.49853516 -0.11621094 C18.96691273 0.33743146 22.35236546 1.693293 25.65405273 4.77539062 C30.06381878 10.54200777 30.71380802 14.04645051 30.00952148 21.24023438 C28.27838194 28.27950664 24.97712998 34.00334473 19.00952148 38.24023438 C13.47074277 41.1474043 8.77430379 41.75281102 2.57202148 41.92773438 C1.74508789 41.96189453 0.9181543 41.99605469 0.06616211 42.03125 C-1.95226796 42.11292058 -3.97134736 42.17827162 -5.99047852 42.24023438 C-6.98047852 46.53023437 -7.97047852 50.82023437 -8.99047852 55.24023438 C-13.61047852 55.24023438 -18.23047852 55.24023438 -22.99047852 55.24023438 C-22.13333566 41.38309152 -22.13333566 41.38309152 -19.99047852 35.24023438 C-19.66047852 35.24023438 -19.33047852 35.24023438 -18.99047852 35.24023438 C-19.44807804 41.79113287 -20.20049291 47.91561857 -21.99047852 54.24023438 C-18.03047852 54.24023438 -14.07047852 54.24023438 -9.99047852 54.24023438 C-9.84610352 52.67273438 -9.70172852 51.10523438 -9.55297852 49.49023438 C-9.2598922 46.30815439 -8.84706986 43.32108393 -7.99047852 40.24023438 C-6.93989258 40.20285156 -5.88930664 40.16546875 -4.80688477 40.12695312 C9.89885368 39.72746373 9.89885368 39.72746373 22.00952148 32.24023438 C26.50507107 25.56540175 28.34550524 19.25613692 27.00952148 11.24023438 C25.02233909 6.78894582 22.8970857 4.70124869 18.38818359 2.86474609 C12.93275488 1.43243709 7.17879538 1.65179398 1.57202148 1.55273438 C0.26813477 1.51857422 -1.03575195 1.48441406 -2.37915039 1.44921875 C-5.58284049 1.36707285 -8.7862683 1.29781028 -11.99047852 1.24023438 C-12.11165039 2.31402344 -12.23282227 3.3878125 -12.35766602 4.49414062 C-12.52663466 5.93037413 -12.69592256 7.36657009 -12.86547852 8.80273438 C-12.98342773 9.85944336 -12.98342773 9.85944336 -13.10375977 10.9375 C-13.65681754 15.55340528 -14.60243688 19.8020004 -15.99047852 24.24023438 C-16.32047852 24.24023438 -16.65047852 24.24023438 -16.99047852 24.24023438 C-17.15116596 18.91658956 -16.58570408 14.08169933 -15.55297852 8.86523438 C-15.41827148 8.14207031 -15.28356445 7.41890625 -15.14477539 6.67382812 C-13.42117335 -2.28890249 -7.94025539 0.02138069 0 0 Z " fill="#E4E6ED" transform="translate(141.990478515625,28.759765625)"/>
<path d="M0 0 C4.41071299 -0.12452065 8.82046857 -0.21476527 13.23242188 -0.2746582 C14.72999923 -0.29965007 16.22745651 -0.33365627 17.72460938 -0.37719727 C33.79787439 -0.83260644 33.79787439 -0.83260644 40 5 C41.00903026 5.99088745 42.01164352 6.9884905 43 8 C43.66 5.69 44.32 3.38 45 1 C45.33 1 45.66 1 46 1 C46.2408831 7.44362304 45.35299608 13.2103966 44 19.5 C43.71382812 20.87671875 43.71382812 20.87671875 43.421875 22.28125 C42.95496547 24.52241577 42.48089308 26.76180083 42 29 C41.01 28.67 40.02 28.34 39 28 C39.165 27.2575 39.33 26.515 39.5 25.75 C40.88429312 16.71237142 40.88429312 16.71237142 39.09375 7.9609375 C36.29288774 4.31622571 33.30115847 3.16491059 29 2 C26.76946605 1.78126766 24.52944714 1.64759946 22.2890625 1.5859375 C20.42314453 1.52792969 20.42314453 1.52792969 18.51953125 1.46875 C17.23433594 1.4378125 15.94914062 1.406875 14.625 1.375 C13.31660156 1.33632813 12.00820313 1.29765625 10.66015625 1.2578125 C7.44024284 1.16380043 4.2203312 1.07814179 1 1 C1.04060547 1.93336182 1.08121094 2.86672363 1.12304688 3.82836914 C1.11730927 8.91770271 0.03990304 13.77586661 -0.96875 18.74609375 C-1.1685144 19.75720718 -1.36827881 20.76832062 -1.57409668 21.81007385 C-2.209851 25.02048728 -2.85478292 28.22897642 -3.5 31.4375 C-3.93420209 33.62162394 -4.36780241 35.80586761 -4.80078125 37.99023438 C-5.86022382 43.32822884 -6.92719553 48.66467582 -8 54 C-8.66 53.34 -9.32 52.68 -10 52 C-9.88305664 49.61572266 -9.88305664 49.61572266 -9.34765625 46.5390625 C-9.14672363 45.36891602 -8.94579102 44.19876953 -8.73876953 42.99316406 C-8.4944853 41.661746 -8.24812556 40.33070754 -8 39 C-7.80310577 37.93332092 -7.80310577 37.93332092 -7.60223389 36.84509277 C-6.73234576 32.1592306 -5.83054713 27.48003211 -4.91333008 22.80322266 C-4.43157066 20.34474181 -3.9548003 17.88532797 -3.47851562 15.42578125 C-3.17216613 13.85410989 -2.86553611 12.28249318 -2.55859375 10.7109375 C-2.34607216 9.61415176 -2.34607216 9.61415176 -2.1292572 8.49520874 C-1.5567871 5.58791928 -0.93829722 2.81489167 0 0 Z " fill="#EAEBEF" transform="translate(39,29)"/>
<path d="M0 0 C1.79244141 0.01740234 1.79244141 0.01740234 3.62109375 0.03515625 C5.41740234 0.04869141 5.41740234 0.04869141 7.25 0.0625 C8.17683594 0.07410156 9.10367188 0.08570313 10.05859375 0.09765625 C10.14192732 4.93100345 10.01120862 9.33458188 9.05859375 14.09765625 C9.82042969 14.06285156 10.58226563 14.02804688 11.3671875 13.9921875 C17.98430494 13.81870502 24.1526451 13.78882667 30.05859375 17.09765625 C33.25125852 20.44606076 33.99327018 22.30070872 34.37109375 26.91015625 C34.29809401 28.30796612 34.19165486 29.70428045 34.05859375 31.09765625 C33.97996094 31.92652344 33.90132812 32.75539062 33.8203125 33.609375 C33.59238749 35.77636357 33.33869476 37.93687705 33.05859375 40.09765625 C33.38859375 40.09765625 33.71859375 40.09765625 34.05859375 40.09765625 C34.14018949 44.25903888 34.04107899 48.04490465 33.05859375 52.09765625 C29.1403918 48.1794543 29.94191768 42.73627017 29.92578125 37.5 C30.05214133 35.21436917 30.48210535 33.30316113 31.05859375 31.09765625 C31.43635418 28.03240015 31.55850888 25.15331727 31.05859375 22.09765625 C27.11177614 17.58700755 23.02944273 17.26308502 17.2890625 16.78125 C15.94161855 16.69580234 14.59394988 16.61383493 13.24609375 16.53515625 C12.55322266 16.49197266 11.86035156 16.44878906 11.14648438 16.40429688 C9.45070689 16.29904172 7.75467323 16.19792762 6.05859375 16.09765625 C6.3671156 14.13869225 6.68053555 12.18049912 6.99609375 10.22265625 C7.17011719 9.13210937 7.34414062 8.0415625 7.5234375 6.91796875 C8.05859375 4.09765625 8.05859375 4.09765625 9.05859375 2.09765625 C5.09859375 2.09765625 1.13859375 2.09765625 -2.94140625 2.09765625 C-3.06515625 3.87140625 -3.18890625 5.64515625 -3.31640625 7.47265625 C-3.69140625 12.84765625 -3.69140625 12.84765625 -5.94140625 15.09765625 C-6.14890409 10.0139591 -5.58071759 5.9191602 -3.94140625 1.09765625 C-2.94140625 0.09765625 -2.94140625 0.09765625 0 0 Z " fill="#D5DBE8" transform="translate(90.94140625,13.90234375)"/>
<path d="M0 0 C-0.14084796 1.79206547 -0.28783701 3.58364917 -0.4375 5.375 C-0.51871094 6.37273438 -0.59992188 7.37046875 -0.68359375 8.3984375 C-1 11 -1 11 -2 13 C1.96 13 5.92 13 10 13 C10.33 12.34 10.66 11.68 11 11 C11 11.99 11 12.98 11 14 C6.38 14 1.76 14 -3 14 C-3 11.03 -3 8.06 -3 5 C-3.51949219 5.48210938 -4.03898437 5.96421875 -4.57421875 6.4609375 C-5.27160156 7.09257813 -5.96898437 7.72421875 -6.6875 8.375 C-7.37199219 9.00148438 -8.05648437 9.62796875 -8.76171875 10.2734375 C-14.06229347 14.36218798 -18.87849864 14.2570316 -25.3125 14.125 C-26.14845703 14.11597656 -26.98441406 14.10695313 -27.84570312 14.09765625 C-29.89725969 14.07420989 -31.94866777 14.03834266 -34 14 C-34.12375 15.19625 -34.2475 16.3925 -34.375 17.625 C-34.77380462 21.48011134 -35.70431438 24.11294313 -37 28 C-41.62 28 -46.24 28 -51 28 C-50.505 26.515 -50.505 26.515 -50 25 C-50 25.66 -50 26.32 -50 27 C-46.04 27 -42.08 27 -38 27 C-37.34 22.38 -36.68 17.76 -36 13 C-34.865625 12.96261719 -33.73125 12.92523438 -32.5625 12.88671875 C-19.74992433 12.37097635 -11.59107017 10.82659263 -2.36328125 1.3125 C-1 0 -1 0 0 0 Z " fill="#E9EAEF" transform="translate(80,56)"/>
<path d="M0 0 C11.78026802 -0.68622921 11.78026802 -0.68622921 15.75 1.5 C18 4 18 4 18.5625 7.8125 C18.21129853 11.99569973 17.14330068 15.35638884 15 19 C9.74526478 23.17684082 3.37729618 22.27861974 -3 22 C-3.39363688 14.25847464 -1.94210433 7.47941368 0 0 Z M1 2 C0.49666458 4.60356241 -0.00279378 7.20776651 -0.5 9.8125 C-0.64308594 10.55048828 -0.78617188 11.28847656 -0.93359375 12.04882812 C-1.50926281 15.07794391 -2 17.909196 -2 21 C5.79294109 21.81569858 5.79294109 21.81569858 12.625 18.6875 C15.73061012 15.17325697 16.12809942 12.83886 16.0625 8.3125 C16.05347656 7.50425781 16.04445312 6.69601563 16.03515625 5.86328125 C16.02355469 5.24839844 16.01195312 4.63351563 16 4 C12.65060119 1.97441119 10.13037449 1.78261013 6.25 1.875 C5.26515625 1.89304688 4.2803125 1.91109375 3.265625 1.9296875 C2.51796875 1.95289063 1.7703125 1.97609375 1 2 Z " fill="#D5D7DC" transform="translate(140,38)"/>
<path d="M0 0 C12.66970387 -0.55353075 12.66970387 -0.55353075 18 3 C18.62334158 12.73105464 18.62334158 12.73105464 16.25 17.5625 C13.16444408 20.90518557 11.34824651 21.91858415 6.765625 22.1953125 C5.60546875 22.17210938 4.4453125 22.14890625 3.25 22.125 C2.07953125 22.10695313 0.9090625 22.08890625 -0.296875 22.0703125 C-1.18890625 22.04710938 -2.0809375 22.02390625 -3 22 C-2.67 20.68 -2.34 19.36 -2 18 C-2 18.99 -2 19.98 -2 21 C0.1060986 20.74462428 2.20988754 20.47014626 4.3125 20.1875 C5.48425781 20.03667969 6.65601563 19.88585937 7.86328125 19.73046875 C11.0368444 18.9914198 12.11026421 18.5664655 14 16 C15.9360978 12.22970429 16.19575727 9.20878134 16 5 C12.88089144 3.20724134 10.32317572 2.65709282 6.75 2.375 C5.85796875 2.30023438 4.9659375 2.22546875 4.046875 2.1484375 C3.03367187 2.07496094 3.03367187 2.07496094 2 2 C1.87882812 2.91523437 1.75765625 3.83046875 1.6328125 4.7734375 C1.38144531 6.55621094 1.38144531 6.55621094 1.125 8.375 C0.96257813 9.55835938 0.80015625 10.74171875 0.6328125 11.9609375 C0 15 0 15 -2 17 C-1.03644647 5.47835991 -1.03644647 5.47835991 0 0 Z " fill="#D9DCE2" transform="translate(50,38)"/>
<path d="M0 0 C0.66 0.66 1.32 1.32 2 2 C1.52584696 12.79253026 -1.46486063 23.80559081 -3.625 34.375 C-3.95348939 35.99732209 -4.28161649 37.61971759 -4.609375 39.2421875 C-5.40209069 43.16231408 -6.19965106 47.08142505 -7 51 C-7.66 50.34 -8.32 49.68 -9 49 C-8.88525391 46.62231445 -8.88525391 46.62231445 -8.3515625 43.55078125 C-8.15079102 42.38111816 -7.95001953 41.21145508 -7.74316406 40.00634766 C-7.49770587 38.67048061 -7.24985953 37.33505082 -7 36 C-6.86638062 35.28181091 -6.73276123 34.56362183 -6.59509277 33.82366943 C-5.55467762 28.27174472 -4.4680071 22.7292668 -3.375 17.1875 C-3.04663503 15.51241682 -2.71850846 13.83728688 -2.390625 12.16210938 C-1.59649106 8.10752993 -0.79915596 4.05359246 0 0 Z " fill="#CBCED8" transform="translate(38,32)"/>
<path d="M0 0 C4.875 0.875 4.875 0.875 6 2 C6.41009778 7.94641776 5.83876057 11.74303599 3 17 C2.01 17.66 1.02 18.32 0 19 C-0.99 18.67 -1.98 18.34 -3 18 C-1.7934375 17.1028125 -1.7934375 17.1028125 -0.5625 16.1875 C2.26340535 13.77514178 2.86461751 12.46056878 3.203125 8.80859375 C3.21859375 8.02613281 3.2340625 7.24367188 3.25 6.4375 C3.27578125 5.65246094 3.3015625 4.86742187 3.328125 4.05859375 C3.21984375 3.37925781 3.1115625 2.69992188 3 2 C2.01 1.34 1.02 0.68 0 0 Z " fill="#DBE0EB" transform="translate(152,40)"/>
<path d="M0 0 C0.6796875 1.77734375 0.6796875 1.77734375 1 4 C-2.33747638 9.42631649 -7.327603 11.93106795 -13.27734375 13.58984375 C-13.84582031 13.72519531 -14.41429687 13.86054687 -15 14 C-15.66 13.34 -16.32 12.68 -17 12 C-16.11248047 11.74476562 -16.11248047 11.74476562 -15.20703125 11.484375 C-9.10011523 9.61145459 -4.82021137 7.76170001 -1.1875 2.25 C-0.795625 1.5075 -0.40375 0.765 0 0 Z " fill="#D6D9E0" transform="translate(167,56)"/>
<path d="M0 0 C2 2 2 2 2.046875 3.8125 C1.94890625 4.534375 1.8509375 5.25625 1.75 6 C1.64300781 6.79277344 1.53601563 7.58554687 1.42578125 8.40234375 C0.73344334 12.62624015 -0.10026226 16.81578273 -1 21 C-2.46800688 19.03561669 -3.03217444 17.53263574 -2.88378906 15.07617188 C-2.52249521 12.78558931 -2.09207827 10.52135643 -1.625 8.25 C-1.47289063 7.45722656 -1.32078125 6.66445313 -1.1640625 5.84765625 C-0.78786303 3.8961215 -0.39549684 1.94771562 0 0 Z " fill="#C7CAD3" transform="translate(108,48)"/>
<path d="M0 0 C0.99 1.485 0.99 1.485 2 3 C2.66 3.66 3.32 4.32 4 5 C4.23600253 9.16937798 3.98329211 12.94392005 3 17 C-0.50270401 13.49729599 -0.05580639 9.41988475 -0.0625 4.6875 C-0.04653226 3.1249427 -0.02730408 1.56240032 0 0 Z " fill="#ACB5CD" transform="translate(121,49)"/>
<path d="M0 0 C2.31243792 -0.02685412 4.6249627 -0.04632841 6.9375 -0.0625 C8.22527344 -0.07410156 9.51304688 -0.08570313 10.83984375 -0.09765625 C14 0 14 0 15 1 C15.35897436 7.46153846 15.35897436 7.46153846 13 11 C13 8.03 13 5.06 13 2 C8.71 1.67 4.42 1.34 0 1 C0 0.67 0 0.34 0 0 Z " fill="#E4E7ED" transform="translate(96,39)"/>
<path d="M0 0 C2.49310643 3.73965964 2.0603261 5.29070641 1.625 9.6875 C1.51414062 10.86699219 1.40328125 12.04648437 1.2890625 13.26171875 C1.19367188 14.16535156 1.09828125 15.06898437 1 16 C0.01 15.67 -0.98 15.34 -2 15 C-1.34 10.05 -0.68 5.1 0 0 Z " fill="#CBCBCC" transform="translate(80,42)"/>
<path d="M0 0 C0.33 0 0.66 0 1 0 C1.07654536 4.51617599 1.10228696 8.59085217 0 13 C-0.33 12.34 -0.66 11.68 -1 11 C-1.66 11 -2.32 11 -3 11 C-2.01 7.37 -1.02 3.74 0 0 Z " fill="#C3C8D5" transform="translate(84,30)"/>
<path d="M0 0 C4.16943993 0.93599672 5.58410733 1.37616099 8 5 C5 5 5 5 2 3 C0.34450469 2.61500109 -1.3222433 2.27206865 -3 2 C-2.01 1.34 -1.02 0.68 0 0 Z " fill="#C9CDD7" transform="translate(115,29)"/>
<path d="M0 0 C0.66 0.66 1.32 1.32 2 2 C1.96712417 4.72869407 1.43602229 7.2966618 1 10 C0.34 9.67 -0.32 9.34 -1 9 C-0.67 6.03 -0.34 3.06 0 0 Z " fill="#BFC4CF" transform="translate(91,58)"/>
<path d="M0 0 C0.66 0.33 1.32 0.66 2 1 C0.75023244 4.65316671 0.32901247 5.78065836 -3 8 C-3.99 7.67 -4.98 7.34 -6 7 C-5.195625 6.401875 -4.39125 5.80375 -3.5625 5.1875 C-0.77672016 3.19052724 -0.77672016 3.19052724 0 0 Z " fill="#D8DBE2" transform="translate(155,51)"/>
</svg>
